<?xml version="1.0" encoding="utf-8"?>
<!-- Generator: Adobe Illustrator 23.0.4, SVG Export Plug-In . SVG Version: 6.00 Build 0)  -->
<svg version="1.1" id="Layer_1" xmlns="http://www.w3.org/2000/svg" xmlns:xlink="http://www.w3.org/1999/xlink" x="0px" y="0px"
	 viewBox="0 0 40 40" style="enable-background:new 0 0 40 40;" xml:space="preserve">
<g id="XMLID_2305_">
	<g id="XMLID_2306_">
		<path id="XMLID_2312_" style="fill:#222221;" d="M16.5,27.9c0.7-0.1,1.3-0.4,1.9-0.8c0.5-0.4,0.9-0.8,1.2-1.3
			c0.5-0.8,0.7-1.7,0.7-2.6c0-1-0.2-1.8-0.6-2.4c-0.4-0.7-1.1-1.2-1.9-1.5c0.6-0.3,1-0.6,1.3-0.9c0.5-0.6,0.8-1.4,0.8-2.4
			c0-1-0.3-1.8-0.8-2.5c-0.8-1.1-2.3-1.7-4.3-1.8h-8v16.6h7.5C15,28.1,15.7,28,16.5,27.9z M9.9,14.4h3.6c0.8,0,1.4,0.1,2,0.3
			c0.6,0.2,0.9,0.8,0.9,1.5c0,0.7-0.2,1.2-0.7,1.5c-0.4,0.3-1,0.4-1.8,0.4h-4V14.4z M9.9,25.2v-4.4H14c0.7,0,1.3,0.1,1.7,0.3
			c0.7,0.3,1.1,0.9,1.1,1.8c0,1-0.4,1.7-1.1,2.1c-0.4,0.2-1,0.3-1.7,0.3H9.9z"/>
		<g id="XMLID_2307_">
			<path id="XMLID_2309_" style="fill:#222221;" d="M23.1,27c1.2,1,2.7,1.5,4.3,1.5c2,0,3.5-0.6,4.6-1.8c0.7-0.8,1.1-1.5,1.2-2.2
				h-3.3c-0.2,0.4-0.4,0.6-0.7,0.8c-0.5,0.4-1.1,0.6-1.8,0.6c-0.7,0-1.3-0.2-1.8-0.5c-0.8-0.5-1.2-1.4-1.3-2.6h8.9
				c0-1.1,0-1.9-0.1-2.4c-0.1-1-0.5-1.8-1-2.5c-0.6-0.8-1.3-1.4-2.1-1.8c-0.9-0.4-1.8-0.6-2.9-0.6c-1.8,0-3.3,0.6-4.4,1.7
				c-1.1,1.1-1.7,2.8-1.7,4.9C21.2,24.4,21.8,26,23.1,27z M25.4,18.8c0.5-0.5,1.1-0.7,1.9-0.7c0.8,0,1.4,0.2,1.9,0.7
				c0.5,0.4,0.8,1.1,0.9,1.9h-5.5C24.6,19.9,24.9,19.3,25.4,18.8z"/>
			<rect id="XMLID_2308_" x="23.5" y="12.4" style="fill:#222221;" width="7.2" height="1.7"/>
		</g>
	</g>
</g>
</svg>
