<?xml version="1.0" encoding="utf-8"?>
<!-- Generator: Adobe Illustrator 23.0.4, SVG Export Plug-In . SVG Version: 6.00 Build 0)  -->
<svg version="1.1" id="Layer_1" xmlns="http://www.w3.org/2000/svg" xmlns:xlink="http://www.w3.org/1999/xlink" x="0px" y="0px"
	 viewBox="0 0 38 38" style="enable-background:new 0 0 38 38;" xml:space="preserve">
<g id="XMLID_752_">
	<path id="XMLID_1675_" style="fill:#222221;" d="M19,38.1L19,38.1c-10.5,0-19-8.5-19-19v0C0,8.5,8.5,0,19,0h0c10.5,0,19,8.5,19,19
		v0C38.1,29.5,29.5,38.1,19,38.1z"/>
	<g id="XMLID_753_">
		<path id="XMLID_761_" style="fill:#FFFFFF;" d="M16.2,25.3c0.6-0.1,1.1-0.3,1.5-0.7c0.4-0.3,0.7-0.6,0.9-1
			c0.4-0.6,0.6-1.3,0.6-2.1c0-0.8-0.2-1.4-0.5-2c-0.3-0.5-0.9-0.9-1.5-1.2c0.4-0.2,0.8-0.5,1-0.8c0.4-0.5,0.6-1.1,0.6-2
			c0-0.8-0.2-1.5-0.6-2c-0.7-0.9-1.8-1.4-3.5-1.4H8.3v13.3h6C15,25.5,15.6,25.5,16.2,25.3z M11,14.5h2.9c0.6,0,1.2,0.1,1.6,0.2
			c0.5,0.2,0.7,0.6,0.7,1.2c0,0.6-0.2,1-0.5,1.2c-0.4,0.2-0.8,0.3-1.4,0.3H11V14.5z M11,23.2v-3.6h3.3c0.6,0,1,0.1,1.3,0.2
			c0.6,0.3,0.8,0.7,0.8,1.4c0,0.8-0.3,1.4-0.9,1.7c-0.3,0.2-0.8,0.2-1.3,0.2H11z"/>
		<g id="XMLID_755_">
			<path id="XMLID_758_" style="fill:#FFFFFF;" d="M21.5,24.6c1,0.8,2.2,1.2,3.5,1.2c1.6,0,2.8-0.5,3.7-1.4c0.6-0.6,0.9-1.2,1-1.8
				H27c-0.2,0.3-0.3,0.5-0.5,0.7c-0.4,0.3-0.8,0.5-1.4,0.5c-0.6,0-1-0.1-1.4-0.4c-0.6-0.4-1-1.1-1-2.1h7.2c0-0.9,0-1.5-0.1-2
				c-0.1-0.8-0.4-1.5-0.8-2c-0.4-0.7-1-1.2-1.7-1.5c-0.7-0.3-1.5-0.5-2.3-0.5c-1.4,0-2.6,0.5-3.5,1.4C20.4,17.7,20,19,20,20.7
				C20,22.5,20.5,23.8,21.5,24.6z M23.3,18.1c0.4-0.4,0.9-0.6,1.5-0.6c0.6,0,1.1,0.2,1.5,0.5c0.4,0.4,0.6,0.9,0.7,1.6h-4.4
				C22.7,19,23,18.5,23.3,18.1z"/>
			<rect id="XMLID_757_" x="21.8" y="13" style="fill:#FFFFFF;" width="5.8" height="1.3"/>
		</g>
	</g>
</g>
</svg>
