<?xml version="1.0" encoding="utf-8"?>
<!-- Generator: Adobe Illustrator 23.0.4, SVG Export Plug-In . SVG Version: 6.00 Build 0)  -->
<svg version="1.1" id="Layer_1" xmlns="http://www.w3.org/2000/svg" xmlns:xlink="http://www.w3.org/1999/xlink" x="0px" y="0px"
	 viewBox="0 0 40 40" style="enable-background:new 0 0 40 40;" xml:space="preserve">
<g id="XMLID_2270_">
	<path id="XMLID_2271_" style="fill:#222221;" d="M20,4.9C11.7,4.9,4.9,11.7,4.9,20c0,8.3,6.8,15.1,15.1,15.1
		c8.3,0,15.1-6.8,15.1-15.1C35.1,11.7,28.3,4.9,20,4.9z M20,7.5c2.9,0,5.5,1,7.6,2.6c-1.5,2-3.6,3.5-6.3,4.6
		c-1.3-2.3-2.7-4.6-4.4-6.8C17.9,7.7,18.9,7.5,20,7.5z M14.4,8.9c1.7,2.2,3.2,4.5,4.5,6.8C15.8,16.6,12.1,17,7.9,17
		C8.8,13.5,11.2,10.5,14.4,8.9z M7.5,20c0-0.1,0-0.2,0-0.3c4.8,0,9-0.6,12.5-1.7c0.3,0.6,0.6,1.2,0.8,1.8c-4.3,1.3-7.8,4.1-10.5,8.2
		C8.6,25.8,7.5,23,7.5,20z M20,32.5c-2.9,0-5.5-1-7.7-2.6c2.5-3.9,5.6-6.4,9.6-7.6c1.2,3,2,6.2,2.6,9.4C23.1,32.2,21.6,32.5,20,32.5
		z M26.9,30.4c-0.6-3-1.4-5.9-2.4-8.7c2.4-0.3,5-0.2,7.8,0.2C31.8,25.4,29.8,28.5,26.9,30.4z M23.5,19.2c-0.3-0.7-0.6-1.4-1-2.1
		c2.9-1.3,5.2-3,7-5.1c1.7,2,2.8,4.6,2.9,7.4C29.2,18.8,26.2,18.7,23.5,19.2z"/>
</g>
</svg>
