<?xml version="1.0" encoding="utf-8"?>
<!-- Generator: Adobe Illustrator 23.0.4, SVG Export Plug-In . SVG Version: 6.00 Build 0)  -->
<svg version="1.1" id="Layer_1" xmlns="http://www.w3.org/2000/svg" xmlns:xlink="http://www.w3.org/1999/xlink" x="0px" y="0px"
	 viewBox="0 0 40 40" style="enable-background:new 0 0 40 40;" xml:space="preserve">
<g id="XMLID_736_">
	<path id="XMLID_815_" style="fill:none;stroke:#222221;stroke-width:1.5;stroke-miterlimit:10;" d="M20,39L20,39
		C9.5,39,1,30.5,1,20v0C1,9.5,9.5,1,20,1h0c10.5,0,19,8.5,19,19v0C39,30.5,30.5,39,20,39z"/>
	<path id="XMLID_740_" style="fill:#222221;" d="M20,7.9C13.3,7.9,7.9,13.3,7.9,20c0,6.7,5.4,12.1,12.1,12.1
		c6.7,0,12.1-5.4,12.1-12.1C32.1,13.3,26.7,7.9,20,7.9z M20,10c2.3,0,4.4,0.8,6.1,2.1c-1.2,1.6-2.9,2.8-5,3.7
		c-1-1.9-2.2-3.7-3.5-5.5C18.3,10.1,19.2,10,20,10z M15.5,11.1c1.3,1.8,2.5,3.6,3.6,5.4c-2.5,0.7-5.4,1.1-8.8,1.1
		C11,14.8,12.9,12.4,15.5,11.1z M10,20c0-0.1,0-0.2,0-0.3c3.9,0,7.2-0.5,10.1-1.3c0.2,0.5,0.5,1,0.7,1.4c-3.4,1.1-6.2,3.3-8.4,6.6
		C10.9,24.7,10,22.4,10,20z M20,30c-2.3,0-4.4-0.8-6.1-2.1c2-3.1,4.5-5.2,7.7-6.1c0.9,2.4,1.6,5,2.1,7.5C22.5,29.8,21.3,30,20,30z
		 M25.6,28.3c-0.4-2.4-1.1-4.7-1.9-7c1.9-0.3,4-0.2,6.3,0.2C29.4,24.4,27.8,26.8,25.6,28.3z M22.8,19.4c-0.2-0.6-0.5-1.1-0.8-1.7
		c2.3-1,4.2-2.4,5.6-4.1c1.4,1.6,2.2,3.7,2.3,5.9C27.4,19,25,19,22.8,19.4z"/>
</g>
</svg>
