<?xml version="1.0" encoding="utf-8"?>
<!-- Generator: Adobe Illustrator 23.0.4, SVG Export Plug-In . SVG Version: 6.00 Build 0)  -->
<svg version="1.1" id="Layer_1" xmlns="http://www.w3.org/2000/svg" xmlns:xlink="http://www.w3.org/1999/xlink" x="0px" y="0px"
	 viewBox="0 0 38 38" style="enable-background:new 0 0 38 38;" xml:space="preserve">
<g id="XMLID_1678_">
	<path id="XMLID_1680_" style="fill:#222221;" d="M19,38L19,38C8.5,38,0,29.5,0,19v0C0,8.5,8.5,0,19,0l0,0c10.5,0,19,8.5,19,19v0
		C38,29.5,29.5,38,19,38z"/>
	<g transform="translate(0,-952.36218)">
		<path style="fill:#FFFFFF;" d="M10,964c-0.2,0-0.4,0-0.6,0.1l9,8.3c0.4,0.4,0.7,0.4,1.1,0l9-8.3c-0.2-0.1-0.4-0.1-0.6-0.1H10z
			 M8.4,965.4c0,0.1,0,0.1,0,0.2v11.4c0,0.9,0.7,1.6,1.6,1.6h18c0.9,0,1.6-0.7,1.6-1.6v-11.4c0-0.1,0-0.1,0-0.2l-8.9,8.2
			c-0.9,0.9-2.4,0.9-3.3,0L8.4,965.4z"/>
	</g>
</g>
</svg>
