<?xml version="1.0" encoding="utf-8"?>
<!-- Generator: Adobe Illustrator 23.0.4, SVG Export Plug-In . SVG Version: 6.00 Build 0)  -->
<svg version="1.1" id="Layer_1" xmlns="http://www.w3.org/2000/svg" xmlns:xlink="http://www.w3.org/1999/xlink" x="0px" y="0px"
	 viewBox="0 0 40 40" style="enable-background:new 0 0 40 40;" xml:space="preserve">
<g transform="translate(0,-952.36218)">
	<path d="M9.6,963.8c-0.3,0-0.5,0-0.7,0.1l10.5,9.7c0.4,0.4,0.9,0.4,1.3,0l10.5-9.7c-0.2-0.1-0.5-0.1-0.7-0.1H9.6z M7.7,965.5
		c0,0.1,0,0.2,0,0.3V979c0,1,0.8,1.9,1.9,1.9h20.8c1,0,1.9-0.8,1.9-1.9v-13.3c0-0.1,0-0.2,0-0.3L21.9,975c-1.1,1-2.8,1-3.9,0
		L7.7,965.5z"/>
</g>
</svg>
