<?xml version="1.0" encoding="utf-8"?>
<!-- Generator: Adobe Illustrator 23.0.4, SVG Export Plug-In . SVG Version: 6.00 Build 0)  -->
<svg version="1.1" id="Layer_1" xmlns="http://www.w3.org/2000/svg" xmlns:xlink="http://www.w3.org/1999/xlink" x="0px" y="0px"
	 viewBox="0 0 40 40" style="enable-background:new 0 0 40 40;" xml:space="preserve">
<g id="XMLID_2010_">
	<path id="XMLID_2012_" style="fill:none;stroke:#222221;stroke-width:1.5;stroke-miterlimit:10;" d="M20,39L20,39
		C9.5,39,1,30.5,1,20v0C1,9.5,9.5,1,20,1l0,0c10.5,0,19,8.5,19,19v0C39,30.5,30.5,39,20,39z"/>
	<g transform="translate(0,-952.36218)">
		<path d="M11,965c-0.2,0-0.4,0-0.6,0.1l9,8.3c0.4,0.4,0.7,0.4,1.1,0l9-8.3c-0.2-0.1-0.4-0.1-0.6-0.1H11z M9.4,966.4
			c0,0.1,0,0.1,0,0.2v11.4c0,0.9,0.7,1.6,1.6,1.6h18c0.9,0,1.6-0.7,1.6-1.6v-11.4c0-0.1,0-0.1,0-0.2l-8.9,8.2
			c-0.9,0.9-2.4,0.9-3.3,0L9.4,966.4z"/>
	</g>
</g>
</svg>
