<?xml version="1.0" encoding="utf-8"?>
<!-- Generator: Adobe Illustrator 23.0.4, SVG Export Plug-In . SVG Version: 6.00 Build 0)  -->
<svg version="1.1" id="Layer_1" xmlns="http://www.w3.org/2000/svg" xmlns:xlink="http://www.w3.org/1999/xlink" x="0px" y="0px"
	 viewBox="0 0 40 40" style="enable-background:new 0 0 40 40;" xml:space="preserve">
<g id="XMLID_2080_">
	<path id="XMLID_2082_" style="fill:none;stroke:#222221;stroke-width:1.5;stroke-miterlimit:10;" d="M20,39L20,39
		C9.5,39,1,30.5,1,20v0C1,9.5,9.5,1,20,1h0c10.5,0,19,8.5,19,19v0C39,30.5,30.5,39,20,39z"/>
	<path id="XMLID_2081_" style="fill:#222221;" d="M17.1,31.5h4.6V19.9H25l0.3-3.9h-3.6c0,0,0-1.5,0-2.2c0-0.9,0.2-1.3,1.1-1.3
		c0.7,0,2.5,0,2.5,0v-4c0,0-2.6,0-3.2,0c-3.4,0-5,1.5-5,4.4c0,2.5,0,3.1,0,3.1h-2.4V20h2.4V31.5z"/>
</g>
</svg>
