<?xml version="1.0" encoding="utf-8"?>
<!-- Generator: Adobe Illustrator 23.0.4, SVG Export Plug-In . SVG Version: 6.00 Build 0)  -->
<svg version="1.1" id="Layer_1" xmlns="http://www.w3.org/2000/svg" xmlns:xlink="http://www.w3.org/1999/xlink" x="0px" y="0px"
	 viewBox="0 0 38 38" style="enable-background:new 0 0 38 38;" xml:space="preserve">
<path style="fill-rule:evenodd;clip-rule:evenodd;fill:#181616;" d="M19,0C8.5,0,0,8.7,0,19.5C0,28.1,5.4,35.4,13,38
	c1,0.2,1.3-0.4,1.3-0.9c0-0.5,0-1.7,0-3.3c-5.3,1.2-6.4-2.6-6.4-2.6c-0.9-2.3-2.1-2.8-2.1-2.8C4,27,5.9,27.1,5.9,27.1
	c1.9,0.1,2.9,2,2.9,2c1.7,3,4.4,2.1,5.5,1.6c0.2-1.3,0.7-2.1,1.2-2.6c-4.2-0.5-8.7-2.2-8.7-9.6c0-2.1,0.7-3.9,2-5.2
	C8.6,12.7,8,10.8,9,8.1c0,0,1.6-0.5,5.2,2c1.5-0.4,3.1-0.6,4.8-0.7c1.6,0,3.2,0.2,4.8,0.7c3.6-2.5,5.2-2,5.2-2
	c1,2.7,0.4,4.7,0.2,5.2c1.2,1.4,2,3.1,2,5.2c0,7.5-4.4,9.1-8.7,9.6c0.7,0.6,1.3,1.8,1.3,3.6c0,2.6,0,4.7,0,5.3
	c0,0.5,0.3,1.1,1.3,0.9c7.5-2.6,13-9.9,13-18.5C38,8.7,29.5,0,19,0z"/>
</svg>
