<?xml version="1.0" encoding="utf-8"?>
<!-- Generator: Adobe Illustrator 23.0.4, SVG Export Plug-In . SVG Version: 6.00 Build 0)  -->
<svg version="1.1" id="Layer_1" xmlns="http://www.w3.org/2000/svg" xmlns:xlink="http://www.w3.org/1999/xlink" x="0px" y="0px"
	 viewBox="0 0 38 38" style="enable-background:new 0 0 38 38;" xml:space="preserve">
<g>
	<path style="fill-rule:evenodd;clip-rule:evenodd;" d="M19,0C8.5,0,0,8.7,0,19.5C0,28.1,5.4,35.4,13,38c0.9,0.2,1.3-0.4,1.3-0.9
		c0-0.5,0-2,0-3.6c-5.3,1.2-6.4-2.3-6.4-2.3c-0.9-2.3-2.1-2.9-2.1-2.9C4,27,5.9,27.1,5.9,27.1c1.9,0.1,2.9,2,2.9,2
		c1.7,3,4.4,2.1,5.5,1.6c0.2-1.3,0.7-2.1,1.2-2.6c-4.2-0.5-8.7-2.2-8.7-9.6c0-2.1,0.7-3.9,2-5.2C8.6,12.7,8,10.8,9,8.1
		c0,0,1.6-0.5,5.2,2c1.5-0.4,3.1-0.6,4.8-0.7c1.6,0,3.2,0.2,4.8,0.7c3.6-2.5,5.2-2,5.2-2c1,2.7,0.4,4.7,0.2,5.2c1.2,1.4,2,3.1,2,5.2
		c0,7.5-4.4,9.1-8.7,9.6c0.7,0.6,1.3,1.8,1.3,3.6c0,2.6,0,4.7,0,5.3c0,0.5,0.3,1.1,1.3,0.9c7.5-2.6,13-9.9,13-18.5
		C38,8.7,29.5,0,19,0z"/>
	<path d="M7.2,28c0,0.1-0.2,0.1-0.3,0.1c-0.1-0.1-0.2-0.2-0.2-0.3c0-0.1,0.2-0.1,0.3-0.1C7.2,27.7,7.2,27.9,7.2,28L7.2,28z M7,27.8"
		/>
	<path d="M8,28.9c-0.1,0.1-0.3,0-0.4-0.1c-0.1-0.1-0.1-0.3-0.1-0.4c0.1-0.1,0.3,0,0.4,0.1C8,28.6,8.1,28.8,8,28.9L8,28.9z M7.8,28.7
		"/>
	<path d="M8.7,30c-0.1,0.1-0.3,0-0.4-0.2c-0.1-0.2-0.1-0.4,0-0.5c0.1-0.1,0.3,0,0.4,0.2C8.8,29.7,8.8,29.9,8.7,30L8.7,30z M8.7,30"
		/>
	<path d="M9.7,31.1c-0.1,0.1-0.3,0.1-0.5-0.1c-0.2-0.2-0.2-0.4-0.1-0.5c0.1-0.1,0.3-0.1,0.5,0.1C9.8,30.7,9.9,30.9,9.7,31.1
		L9.7,31.1z M9.7,31.1"/>
	<path d="M11.2,31.7c0,0.2-0.3,0.2-0.5,0.2c-0.2-0.1-0.4-0.2-0.3-0.4c0-0.2,0.3-0.2,0.5-0.2C11.1,31.4,11.2,31.5,11.2,31.7
		L11.2,31.7z M11.2,31.7"/>
	<path d="M12.7,31.8c0,0.2-0.2,0.3-0.4,0.3c-0.2,0-0.4-0.1-0.4-0.3c0-0.2,0.2-0.3,0.4-0.3C12.5,31.5,12.7,31.6,12.7,31.8L12.7,31.8z
		 M12.7,31.8"/>
	<path d="M14.2,31.6c0,0.2-0.1,0.3-0.4,0.4c-0.2,0-0.4-0.1-0.5-0.2c0-0.2,0.1-0.3,0.4-0.4C13.9,31.3,14.1,31.4,14.2,31.6L14.2,31.6z
		 M14.2,31.6"/>
</g>
</svg>
