<?xml version="1.0" encoding="utf-8"?>
<!-- Generator: Adobe Illustrator 23.0.4, SVG Export Plug-In . SVG Version: 6.00 Build 0)  -->
<svg version="1.1" id="Layer_1" xmlns="http://www.w3.org/2000/svg" xmlns:xlink="http://www.w3.org/1999/xlink" x="0px" y="0px"
	 viewBox="0 0 38 38" style="enable-background:new 0 0 38 38;" xml:space="preserve">
<g id="XMLID_1716_">
	<path id="XMLID_1720_" style="fill:#222221;" d="M19,38.1L19,38.1c-10.5,0-19-8.5-19-19v0C0,8.5,8.5,0,19,0l0,0
		c10.5,0,19,8.5,19,19v0C38.1,29.5,29.5,38.1,19,38.1z"/>
	<g id="XMLID_1717_">
		<path id="XMLID_1719_" style="fill:#FFFFFF;" d="M21.4,18.5h-7.7l0,2.2h5.2c-0.6,2.7-2.5,4.3-5,4.3c-3.3,0-6-2.7-6-6
			c0-3.3,2.7-6,6-6c1.6,0,3,0.6,4.1,1.6l1.7-1.5c-1.5-1.5-3.5-2.4-5.8-2.4c-4.6,0-8.3,3.7-8.3,8.3c0,4.6,3.7,8.3,8.3,8.3
			c4.4,0,7.6-3.3,7.6-7.9L21.4,18.5z"/>
		<polygon id="XMLID_1718_" style="fill:#FFFFFF;" points="32.5,18.6 29.3,18.6 29.3,15.5 27.3,15.5 27.3,18.6 24.1,18.6 24.1,20.7 
			27.3,20.7 27.3,23.8 29.3,23.8 29.3,20.7 32.5,20.7 		"/>
	</g>
</g>
</svg>
