<?xml version="1.0" encoding="utf-8"?>
<!-- Generator: Adobe Illustrator 23.0.4, SVG Export Plug-In . SVG Version: 6.00 Build 0)  -->
<svg version="1.1" id="Layer_1" xmlns="http://www.w3.org/2000/svg" xmlns:xlink="http://www.w3.org/1999/xlink" x="0px" y="0px"
	 viewBox="0 0 40 40" style="enable-background:new 0 0 40 40;" xml:space="preserve">
<g id="XMLID_2385_">
	<g id="XMLID_2386_">
		<path id="XMLID_2388_" style="fill:#222221;" d="M23,19.4h-9.6l0,2.7h6.5c-0.8,3.3-3.1,5.4-6.3,5.4c-4.2,0-7.5-3.4-7.5-7.5
			s3.4-7.5,7.5-7.5c2,0,3.8,0.8,5.1,2l2.1-1.8c-1.9-1.8-4.4-3-7.2-3C7.9,9.7,3.3,14.3,3.3,20s4.6,10.3,10.3,10.3
			c5.5,0,9.4-4.2,9.4-9.9L23,19.4z"/>
		<polygon id="XMLID_2387_" style="fill:#222221;" points="36.7,19.5 32.8,19.5 32.8,15.5 30.3,15.5 30.3,19.5 26.3,19.5 26.3,22 
			30.3,22 30.3,26 32.8,26 32.8,22 36.7,22 		"/>
	</g>
</g>
</svg>
