<?xml version="1.0" encoding="utf-8"?>
<!-- Generator: Adobe Illustrator 23.0.4, SVG Export Plug-In . SVG Version: 6.00 Build 0)  -->
<svg version="1.1" id="Layer_1" xmlns="http://www.w3.org/2000/svg" xmlns:xlink="http://www.w3.org/1999/xlink" x="0px" y="0px"
	 viewBox="0 0 40 40" style="enable-background:new 0 0 40 40;" xml:space="preserve">
<g id="XMLID_2104_">
	<path id="XMLID_2108_" style="fill:none;stroke:#222221;stroke-width:1.5;stroke-miterlimit:10;" d="M20,39L20,39
		C9.5,39,1,30.5,1,20v0C1,9.5,9.5,1,20,1h0c10.5,0,19,8.5,19,19v0C39,30.5,30.5,39,20,39z"/>
	<g id="XMLID_2105_">
		<path id="XMLID_2107_" style="fill:#222221;" d="M22.4,19.5h-7.7l0,2.2h5.2c-0.6,2.7-2.5,4.3-5,4.3c-3.3,0-6-2.7-6-6
			c0-3.3,2.7-6,6-6c1.6,0,3,0.6,4.1,1.6l1.7-1.5c-1.5-1.5-3.5-2.4-5.8-2.4c-4.6,0-8.3,3.7-8.3,8.3c0,4.6,3.7,8.3,8.3,8.3
			c4.4,0,7.6-3.3,7.6-7.9L22.4,19.5z"/>
		<polygon id="XMLID_2106_" style="fill:#222221;" points="33.4,19.6 30.3,19.6 30.3,16.4 28.2,16.4 28.2,19.6 25.1,19.6 25.1,21.6 
			28.2,21.6 28.2,24.8 30.3,24.8 30.3,21.6 33.4,21.6 		"/>
	</g>
</g>
</svg>
