<?xml version="1.0" encoding="utf-8"?>
<!-- Generator: Adobe Illustrator 23.0.4, SVG Export Plug-In . SVG Version: 6.00 Build 0)  -->
<svg version="1.1" id="Layer_1" xmlns="http://www.w3.org/2000/svg" xmlns:xlink="http://www.w3.org/1999/xlink" x="0px" y="0px"
	 viewBox="0 0 38 38" style="enable-background:new 0 0 38 38;" xml:space="preserve">
<g id="XMLID_1683_">
	<path id="XMLID_1692_" style="fill:#222221;" d="M19,38.1L19,38.1c-10.5,0-19-8.5-19-19v0C0,8.5,8.5,0,19,0l0,0
		c10.5,0,19,8.5,19,19v0C38.1,29.5,29.5,38.1,19,38.1z"/>
	<g id="XMLID_1684_">
		<path id="XMLID_1689_" style="fill:#FFFFFF;" d="M19,10.5c2.8,0,3.1,0,4.2,0.1c1,0,1.6,0.2,1.9,0.4c0.5,0.2,0.8,0.4,1.2,0.8
			c0.4,0.4,0.6,0.7,0.8,1.2c0.1,0.4,0.3,0.9,0.4,1.9c0.1,1.1,0.1,1.4,0.1,4.2s0,3.1-0.1,4.2c0,1-0.2,1.6-0.4,1.9
			c-0.2,0.5-0.4,0.8-0.8,1.2c-0.4,0.4-0.7,0.6-1.2,0.8c-0.4,0.1-0.9,0.3-1.9,0.4c-1.1,0-1.4,0.1-4.2,0.1c-2.8,0-3.1,0-4.2-0.1
			c-1,0-1.6-0.2-1.9-0.4c-0.5-0.2-0.8-0.4-1.2-0.8c-0.4-0.4-0.6-0.7-0.8-1.2c-0.1-0.4-0.3-0.9-0.4-1.9c-0.1-1.1-0.1-1.4-0.1-4.2
			s0-3.1,0.1-4.2c0-1,0.2-1.6,0.4-1.9c0.2-0.5,0.4-0.8,0.8-1.2c0.4-0.4,0.7-0.6,1.2-0.8c0.4-0.1,0.9-0.3,1.9-0.4
			C15.9,10.5,16.2,10.5,19,10.5 M19,8.6c-2.8,0-3.2,0-4.3,0.1c-1.1,0.1-1.9,0.2-2.5,0.5c-0.7,0.3-1.3,0.6-1.8,1.2s-0.9,1.2-1.2,1.8
			c-0.3,0.7-0.4,1.4-0.5,2.5c-0.1,1.1-0.1,1.5-0.1,4.3c0,2.8,0,3.2,0.1,4.3c0.1,1.1,0.2,1.9,0.5,2.5c0.3,0.7,0.6,1.3,1.2,1.8
			c0.6,0.6,1.2,0.9,1.8,1.2c0.7,0.3,1.4,0.4,2.5,0.5c1.1,0.1,1.5,0.1,4.3,0.1c2.8,0,3.2,0,4.3-0.1c1.1-0.1,1.9-0.2,2.5-0.5
			c0.7-0.3,1.3-0.6,1.8-1.2c0.6-0.6,0.9-1.2,1.2-1.8c0.3-0.7,0.4-1.4,0.5-2.5c0.1-1.1,0.1-1.5,0.1-4.3c0-2.8,0-3.2-0.1-4.3
			c-0.1-1.1-0.2-1.9-0.5-2.5c-0.3-0.7-0.6-1.3-1.2-1.8s-1.2-0.9-1.8-1.2c-0.7-0.3-1.4-0.4-2.5-0.5C22.2,8.6,21.9,8.6,19,8.6"/>
		<path id="XMLID_1686_" style="fill:#FFFFFF;" d="M19,13.7c-3,0-5.4,2.4-5.4,5.4c0,3,2.4,5.4,5.4,5.4c3,0,5.4-2.4,5.4-5.4
			C24.4,16.1,22,13.7,19,13.7 M19,22.5c-1.9,0-3.5-1.6-3.5-3.5c0-1.9,1.6-3.5,3.5-3.5s3.5,1.6,3.5,3.5C22.5,21,21,22.5,19,22.5"/>
		<path id="XMLID_1685_" style="fill:#FFFFFF;" d="M25.9,13.5c0,0.7-0.6,1.3-1.3,1.3c-0.7,0-1.3-0.6-1.3-1.3c0-0.7,0.6-1.3,1.3-1.3
			C25.3,12.2,25.9,12.8,25.9,13.5"/>
	</g>
</g>
</svg>
