<?xml version="1.0" encoding="utf-8"?>
<!-- Generator: Adobe Illustrator 23.0.4, SVG Export Plug-In . SVG Version: 6.00 Build 0)  -->
<svg version="1.1" id="Layer_1" xmlns="http://www.w3.org/2000/svg" xmlns:xlink="http://www.w3.org/1999/xlink" x="0px" y="0px"
	 viewBox="0 0 40 40" style="enable-background:new 0 0 40 40;" xml:space="preserve">
<g id="XMLID_2296_">
	<g id="XMLID_2297_">
		<g id="XMLID_2299_">
			<rect id="XMLID_2301_" x="8.6" y="16" style="fill:#222221;" width="4.9" height="15.9"/>
			<path id="XMLID_2300_" style="fill:#222221;" d="M11,14c1.6,0,2.9-1.3,2.9-2.9S12.6,8.1,11,8.1c-1.6,0-2.9,1.3-2.9,2.9
				S9.4,14,11,14z"/>
		</g>
		<path id="XMLID_2298_" style="fill:#222221;" d="M21.3,23.6c0-2.2,1-3.6,3-3.6c1.8,0,2.7,1.3,2.7,3.6c0,2.3,0,8.3,0,8.3h4.9
			c0,0,0-5.8,0-10c0-4.2-2.4-6.3-5.8-6.3c-3.4,0-4.8,2.6-4.8,2.6V16h-4.7v15.9h4.7C21.3,31.9,21.3,26,21.3,23.6z"/>
	</g>
</g>
</svg>
