<?xml version="1.0" encoding="utf-8"?>
<!-- Generator: Adobe Illustrator 23.0.4, SVG Export Plug-In . SVG Version: 6.00 Build 0)  -->
<svg version="1.1" id="Layer_1" xmlns="http://www.w3.org/2000/svg" xmlns:xlink="http://www.w3.org/1999/xlink" x="0px" y="0px"
	 viewBox="0 0 38 38" style="enable-background:new 0 0 38 38;" xml:space="preserve">
<g id="XMLID_1707_">
	<path id="XMLID_1713_" style="fill:#222221;" d="M19,38.1L19,38.1c-10.5,0-19-8.5-19-19v0C0,8.5,8.5,0,19,0l0,0
		c10.5,0,19,8.5,19,19v0C38.1,29.5,29.5,38.1,19,38.1z"/>
	<g id="XMLID_1708_">
		<g id="XMLID_1710_">
			<rect id="XMLID_1712_" x="10.4" y="14.8" style="fill:#FFFFFF;" width="3.9" height="12.7"/>
			<path id="XMLID_1711_" style="fill:#FFFFFF;" d="M12.4,13.1c1.3,0,2.3-1.1,2.3-2.3s-1-2.3-2.3-2.3c-1.3,0-2.3,1.1-2.3,2.3
				S11.1,13.1,12.4,13.1z"/>
		</g>
		<path id="XMLID_1709_" style="fill:#FFFFFF;" d="M20.6,20.8c0-1.8,0.8-2.9,2.4-2.9c1.4,0,2.1,1,2.1,2.9c0,1.8,0,6.7,0,6.7h3.9
			c0,0,0-4.6,0-8.1c0-3.4-1.9-5.1-4.6-5.1c-2.7,0-3.8,2.1-3.8,2.1v-1.7h-3.8v12.7h3.8C20.6,27.5,20.6,22.8,20.6,20.8z"/>
	</g>
</g>
</svg>
