<?xml version="1.0" encoding="utf-8"?>
<!-- Generator: Adobe Illustrator 23.0.4, SVG Export Plug-In . SVG Version: 6.00 Build 0)  -->
<svg version="1.1" id="Layer_1" xmlns="http://www.w3.org/2000/svg" xmlns:xlink="http://www.w3.org/1999/xlink" x="0px" y="0px"
	 viewBox="0 0 40 40" style="enable-background:new 0 0 40 40;" xml:space="preserve">
<g id="XMLID_2319_">
	<path id="XMLID_2320_" style="fill:#222221;" d="M12.4,22.2c0.4,0.2,0.7,0,0.8-0.4c0.1-0.3,0.3-1,0.3-1.3c0.1-0.4,0.1-0.5-0.2-0.9
		c-0.7-0.8-1.1-1.8-1.1-3.2c0-4.1,3.1-7.7,8-7.7c4.3,0,6.7,2.7,6.7,6.2c0,4.7-2.1,8.6-5.1,8.6c-1.7,0-3-1.4-2.6-3.1
		c0.5-2,1.4-4.3,1.4-5.7c0-1.3-0.7-2.4-2.2-2.4c-1.7,0-3.1,1.8-3.1,4.2c0,1.5,0.5,2.6,0.5,2.6s-1.8,7.5-2.1,8.8
		c-0.6,2.6-0.1,5.8,0,6.1c0,0.2,0.3,0.2,0.4,0.1c0.2-0.2,2.2-2.8,2.9-5.3c0.2-0.7,1.1-4.4,1.1-4.4c0.6,1.1,2.2,2,4,2
		c5.2,0,8.7-4.7,8.7-11.1c0-4.8-4.1-9.3-10.2-9.3C13,5.9,9.1,11.4,9.1,16C9.1,18.8,10.2,21.3,12.4,22.2z"/>
</g>
</svg>
