<?xml version="1.0" encoding="utf-8"?>
<!-- Generator: Adobe Illustrator 23.0.4, SVG Export Plug-In . SVG Version: 6.00 Build 0)  -->
<svg version="1.1" id="Layer_1" xmlns="http://www.w3.org/2000/svg" xmlns:xlink="http://www.w3.org/1999/xlink" x="0px" y="0px"
	 viewBox="0 0 38 38" style="enable-background:new 0 0 38 38;" xml:space="preserve">
<g id="XMLID_1678_">
	<path id="XMLID_1680_" style="fill:#222221;" d="M19,38L19,38C8.5,38,0,29.5,0,19v0C0,8.5,8.5,0,19,0l0,0c10.5,0,19,8.5,19,19v0
		C38,29.5,29.5,38,19,38z"/>
	<path id="XMLID_1679_" style="fill:#FFFFFF;" d="M12.9,20.8c0.3,0.1,0.6,0,0.7-0.3c0.1-0.2,0.2-0.8,0.3-1c0.1-0.3,0.1-0.4-0.2-0.7
		c-0.5-0.6-0.9-1.4-0.9-2.5c0-3.3,2.5-6.2,6.4-6.2c3.5,0,5.4,2.1,5.4,5c0,3.7-1.7,6.9-4.1,6.9c-1.4,0-2.4-1.1-2-2.5
		c0.4-1.6,1.1-3.4,1.1-4.6c0-1.1-0.6-1.9-1.8-1.9c-1.4,0-2.5,1.4-2.5,3.4c0,1.2,0.4,2.1,0.4,2.1s-1.4,6-1.7,7.1
		c-0.5,2.1-0.1,4.7,0,4.9c0,0.2,0.2,0.2,0.3,0.1c0.1-0.2,1.8-2.2,2.3-4.2c0.2-0.6,0.9-3.6,0.9-3.6c0.5,0.9,1.8,1.6,3.2,1.6
		c4.2,0,7-3.8,7-8.9c0-3.9-3.3-7.4-8.2-7.4c-6.2,0-9.3,4.4-9.3,8.1C10.3,18,11.1,20,12.9,20.8z"/>
</g>
</svg>
