<?xml version="1.0" encoding="utf-8"?>
<!-- Generator: Adobe Illustrator 23.0.4, SVG Export Plug-In . SVG Version: 6.00 Build 0)  -->
<svg version="1.1" id="Layer_1" xmlns="http://www.w3.org/2000/svg" xmlns:xlink="http://www.w3.org/1999/xlink" x="0px" y="0px"
	 viewBox="0 0 40 40" style="enable-background:new 0 0 40 40;" xml:space="preserve">
<g id="XMLID_2143_">
	<path id="XMLID_2147_" style="fill:none;stroke:#222221;stroke-width:1.5;stroke-miterlimit:10;" d="M20,39L20,39
		C9.5,39,1,30.5,1,20v0C1,9.5,9.5,1,20,1h0c10.5,0,19,8.5,19,19v0C39,30.5,30.5,39,20,39z"/>
	<path id="XMLID_2144_" style="fill:#222221;" d="M9.4,20c0,5.9,4.7,10.6,10.6,10.6c0.7,0,1.3-0.1,2-0.2c0.9,0.6,2,0.9,3.2,0.9
		c3.4,0,6.2-2.8,6.2-6.2c0-1.2-0.3-2.3-0.9-3.3c0.1-0.6,0.2-1.2,0.2-1.8c0-5.9-4.7-10.6-10.6-10.6c-0.7,0-1.3,0.1-2,0.2
		c-0.9-0.6-2-0.9-3.2-0.9c-3.4,0-6.2,2.8-6.2,6.2c0,1.2,0.3,2.3,0.9,3.2C9.5,18.7,9.4,19.4,9.4,20z M20.1,12.5
		c3.4,0.2,5.4,1.7,5.6,3.1c0.1,0.9-0.5,1.6-1.6,1.6c-1.5,0-1.7-2.1-4.4-2.1c-1.2,0-2.2,0.5-2.2,1.6c0,2.3,8.5,0.9,8.5,5.9
		c0,2.9-2.3,4.8-5.7,4.8c-3,0-6.1-1.4-6-3.7c0-0.7,0.5-1.4,1.2-1.4c1.8,0,1.8,2.6,4.6,2.6c2,0,2.7-1.1,2.7-1.8
		c0-2.7-8.6-1.1-8.6-6.2C14.2,14.2,16.5,12.3,20.1,12.5z"/>
</g>
</svg>
