<?xml version="1.0" encoding="utf-8"?>
<!-- Generator: Adobe Illustrator 23.0.4, SVG Export Plug-In . SVG Version: 6.00 Build 0)  -->
<svg version="1.1" id="Layer_1" xmlns="http://www.w3.org/2000/svg" xmlns:xlink="http://www.w3.org/1999/xlink" x="0px" y="0px"
	 viewBox="0 0 38 38" style="enable-background:new 0 0 38 38;" xml:space="preserve">
<g id="XMLID_1977_">
	<path id="XMLID_1986_" style="fill:#222221;" d="M19,38.1L19,38.1c-10.5,0-19-8.5-19-19v0C0,8.5,8.5,0,19,0l0,0
		c10.5,0,19,8.5,19,19v0C38.1,29.5,29.5,38.1,19,38.1z"/>
	<path id="XMLID_1978_" style="fill:#FFFFFF;" d="M8.4,19c0,5.9,4.7,10.6,10.6,10.6c0.7,0,1.3-0.1,2-0.2c0.9,0.6,2,0.9,3.2,0.9
		c3.4,0,6.2-2.8,6.2-6.2c0-1.2-0.3-2.3-0.9-3.3c0.1-0.6,0.2-1.2,0.2-1.8c0-5.9-4.7-10.6-10.6-10.6c-0.7,0-1.3,0.1-2,0.2
		c-0.9-0.6-2-0.9-3.2-0.9c-3.4,0-6.2,2.8-6.2,6.2c0,1.2,0.3,2.3,0.9,3.2C8.5,17.8,8.4,18.4,8.4,19z M19.1,11.5
		c3.4,0.2,5.4,1.7,5.6,3.1c0.1,0.9-0.5,1.6-1.6,1.6c-1.5,0-1.7-2.1-4.4-2.1c-1.2,0-2.2,0.5-2.2,1.6c0,2.3,8.5,0.9,8.5,5.9
		c0,2.9-2.3,4.8-5.7,4.8c-3,0-6.1-1.4-6-3.7c0-0.7,0.5-1.4,1.2-1.4c1.8,0,1.8,2.6,4.6,2.6c2,0,2.7-1.1,2.7-1.8
		c0-2.7-8.6-1.1-8.6-6.2C13.3,13.2,15.6,11.3,19.1,11.5z"/>
</g>
</svg>
