<?xml version="1.0" encoding="utf-8"?>
<!-- Generator: Adobe Illustrator 23.0.4, SVG Export Plug-In . SVG Version: 6.00 Build 0)  -->
<svg version="1.1" id="Layer_1" xmlns="http://www.w3.org/2000/svg" xmlns:xlink="http://www.w3.org/1999/xlink" x="0px" y="0px"
	 viewBox="0 0 40 40" style="enable-background:new 0 0 40 40;" xml:space="preserve">
<g id="XMLID_2324_">
	<path id="XMLID_2325_" style="fill:#222221;" d="M6.8,20c0,7.3,5.9,13.2,13.2,13.2c0.8,0,1.7-0.1,2.5-0.2c1.2,0.7,2.5,1.1,4,1.1
		c4.3,0,7.7-3.5,7.7-7.7c0-1.5-0.4-2.9-1.2-4.1c0.1-0.7,0.2-1.5,0.2-2.3c0-7.3-5.9-13.2-13.2-13.2c-0.8,0-1.6,0.1-2.4,0.2
		c-1.2-0.7-2.5-1.1-4-1.1c-4.3,0-7.7,3.5-7.7,7.7c0,1.5,0.4,2.9,1.1,4C6.9,18.4,6.8,19.2,6.8,20z M20.1,10.6c4.3,0.2,6.8,2.1,7,3.9
		c0.1,1.1-0.6,2-2,2c-1.9,0-2.1-2.6-5.4-2.6c-1.5,0-2.8,0.6-2.8,2c0,2.8,10.6,1.2,10.6,7.4c0,3.6-2.9,5.9-7.1,5.9
		c-3.8,0-7.5-1.7-7.5-4.6c0-0.9,0.7-1.7,1.5-1.7c2.2,0,2.2,3.3,5.7,3.3c2.5,0,3.3-1.3,3.3-2.3c0-3.4-10.7-1.3-10.7-7.7
		C12.8,12.7,15.7,10.4,20.1,10.6z"/>
</g>
</svg>
