<?xml version="1.0" encoding="utf-8"?>
<!-- Generator: Adobe Illustrator 23.0.4, SVG Export Plug-In . SVG Version: 6.00 Build 0)  -->
<svg version="1.1" id="Layer_1" xmlns="http://www.w3.org/2000/svg" xmlns:xlink="http://www.w3.org/1999/xlink" x="0px" y="0px"
	 viewBox="0 0 40 40" style="enable-background:new 0 0 40 40;" xml:space="preserve">
<g id="XMLID_2340_">
	<path id="XMLID_2341_" style="fill-rule:evenodd;clip-rule:evenodd;fill:#222221;" d="M33.7,26.9L33.7,26.9
		C33.7,26.9,33.7,26.9,33.7,26.9C33.7,26.9,33.7,26.9,33.7,26.9L33.7,26.9c-0.4-0.2-0.7-0.3-0.9-0.3c0,0,0,0,0,0
		c-1.5-0.5-2.7-1.5-3.7-2.7c-0.5-0.7-1-1.4-1.3-2.2c0,0,0,0,0,0c-0.1-0.3-0.1-0.7,0-0.9c0,0,0,0,0,0c0.3-0.4,0.7-0.6,1.3-0.8
		c0,0,0,0,0,0c0.6-0.2,1.2-0.4,1.7-0.9c0,0,0,0,0,0c0.1-0.1,0.2-0.2,0.2-0.3c0,0,0-0.1,0-0.1c0-0.1,0-0.3,0-0.4c0,0,0,0,0,0
		c-0.1-0.3-0.4-0.5-0.6-0.6h0c-0.3-0.2-0.7-0.2-1-0.1l0,0h0c-0.3,0.1-0.6,0.2-0.9,0.3c0,0,0,0,0,0c-0.4,0.1-0.7,0.1-1,0
		c0,0,0-0.1,0-0.2h0c0-0.6,0-1.3,0-1.9c0,0,0,0,0,0c0-1,0.1-2-0.1-3.1c0,0,0,0,0,0c-0.3-1.8-1.5-3.3-2.9-4.3c-1-0.7-2.3-1.1-3.5-1.3
		l0,0c-0.4,0-0.9-0.1-1.3-0.1c-1.7,0-3.5,0.5-4.8,1.5c-1,0.8-1.8,1.9-2.4,3.1v0c-0.5,1.2-0.4,2.5-0.4,3.7l0,0c0,0.9,0.1,1.7,0.1,2.5
		c0,0,0,0,0,0.1c-0.4,0.1-0.8,0-1.2,0h0c-0.3,0-0.6-0.2-0.9-0.3c0,0,0,0,0,0c-0.3-0.1-0.7,0-0.9,0.2c0,0,0,0,0,0c0,0,0,0,0,0
		c-0.2,0.1-0.5,0.4-0.5,0.7c0,0,0,0,0,0.1c0,0,0,0,0,0c0,0.2,0.2,0.4,0.3,0.5c0.1,0.1,0.2,0.2,0.3,0.2c0,0,0,0,0,0
		c0.6,0.4,1.3,0.6,1.9,0.8l0,0c0.4,0.2,0.8,0.5,0.9,0.8c0.1,0.4-0.1,1-0.3,1.5v0c-0.7,1.3-1.7,2.5-2.9,3.3c-0.6,0.4-1.4,0.8-2.1,1
		c0,0,0,0,0,0c-0.2,0.1-0.5,0.1-0.8,0.4c0,0,0,0.1,0,0.1c-0.1,0.2,0,0.5,0.1,0.6C6.2,27.9,6.3,28,6.5,28c0,0,0,0,0,0
		c0.6,0.4,1.3,0.5,2,0.7c0,0,0,0,0,0c0.5,0.1,0.9,0.2,1.2,0.3c0,0,0.1,0.1,0.1,0.3c0.1,0.3,0.2,0.8,0.3,1.2c0,0.1,0.1,0.2,0.3,0.2
		c0.3,0.1,0.4,0,0.5,0c0,0,0,0,0,0c1.1-0.2,2.1-0.3,3.1-0.1l0,0c1,0.3,1.9,1,2.9,1.6v0l0,0c0.7,0.4,1.4,0.8,2.3,0.8l0,0c0,0,0,0,0,0
		c0.7,0,1.3,0,2,0c0,0,0,0,0,0c0.5-0.1,1.1-0.2,1.5-0.5c0,0,0,0,0,0c1.1-0.6,2-1.3,3-1.8h0c0.3-0.1,0.7-0.1,1.2-0.1c0,0,0,0,0,0
		c0.9,0,1.7,0,2.5,0.1c0,0,0.1,0,0.1,0c0.1,0,0.2-0.1,0.3-0.2c0.1-0.1,0.1-0.1,0.1-0.2c0-0.1,0-0.1,0-0.1c0,0,0,0,0-0.1
		c0.2-0.5,0.2-1,0.5-1.2c0.1-0.1,0.3-0.2,0.5-0.2c0,0,0,0,0,0c0.7-0.1,1.4-0.3,2-0.6c0,0,0,0,0,0c0.2-0.1,0.6-0.2,0.8-0.5
		c0,0,0,0,0,0l0,0C34.1,27.4,34,27,33.7,26.9L33.7,26.9z"/>
</g>
</svg>
