<?xml version="1.0" encoding="utf-8"?>
<!-- Generator: Adobe Illustrator 23.0.4, SVG Export Plug-In . SVG Version: 6.00 Build 0)  -->
<svg version="1.1" id="Layer_1" xmlns="http://www.w3.org/2000/svg" xmlns:xlink="http://www.w3.org/1999/xlink" x="0px" y="0px"
	 viewBox="0 0 38 38" style="enable-background:new 0 0 38 38;" xml:space="preserve">
<g id="XMLID_742_">
	<path id="XMLID_744_" style="fill:#222221;" d="M53.9,274.4L53.9,274.4c-10.5,0-19-8.5-19-19v0c0-10.5,8.5-19,19-19h0
		c10.5,0,19,8.5,19,19v0C73,265.9,64.5,274.4,53.9,274.4z"/>
	<path id="XMLID_743_" style="fill-rule:evenodd;clip-rule:evenodd;fill:#FFFFFF;stroke:#222221;stroke-miterlimit:10;" d="
		M65,260.9L65,260.9C65,260.9,65,260.9,65,260.9C65,260.9,65,260.9,65,260.9L65,260.9c-0.3-0.2-0.6-0.2-0.7-0.3c0,0,0,0,0,0
		c-1.2-0.4-2.2-1.2-2.9-2.1c-0.4-0.5-0.8-1.1-1-1.8c0,0,0,0,0,0c-0.1-0.3-0.1-0.6,0-0.8c0,0,0,0,0,0c0.2-0.3,0.6-0.5,1-0.6
		c0,0,0,0,0,0c0.5-0.2,1-0.3,1.4-0.7c0,0,0,0,0,0c0.1-0.1,0.1-0.1,0.2-0.3c0,0,0-0.1,0-0.1c0-0.1,0-0.2,0-0.4c0,0,0,0,0,0
		c-0.1-0.2-0.3-0.4-0.5-0.5h0c-0.3-0.1-0.6-0.2-0.8-0.1l0,0h0c-0.3,0.1-0.5,0.2-0.7,0.2c0,0,0,0,0,0c-0.3,0.1-0.6,0.1-0.8,0
		c0,0,0-0.1,0-0.2h0c0-0.5,0-1,0-1.5c0,0,0,0,0,0c0-0.8,0.1-1.6-0.1-2.5c0,0,0,0,0,0c-0.3-1.4-1.2-2.6-2.3-3.4
		c-0.8-0.6-1.8-0.9-2.8-1l0,0c-0.3,0-0.7,0-1,0c-1.4,0-2.8,0.4-3.9,1.2c-0.8,0.6-1.5,1.5-1.9,2.5v0c-0.4,1-0.4,2-0.3,3l0,0
		c0,0.7,0.1,1.3,0,2c0,0,0,0,0,0c-0.3,0.1-0.6,0-1,0h0c-0.2,0-0.5-0.1-0.7-0.2c0,0,0,0,0,0c-0.3-0.1-0.5,0-0.7,0.2c0,0,0,0,0,0
		c0,0,0,0,0,0c-0.2,0.1-0.4,0.3-0.4,0.6c0,0,0,0,0,0.1c0,0,0,0,0,0c0,0.2,0.1,0.3,0.2,0.4c0.1,0.1,0.2,0.1,0.3,0.2c0,0,0,0,0,0
		c0.5,0.3,1,0.5,1.5,0.7l0,0c0.3,0.1,0.6,0.4,0.7,0.7c0.1,0.4-0.1,0.8-0.3,1.2v0c-0.5,1.1-1.3,2-2.3,2.7c-0.5,0.4-1.1,0.6-1.7,0.8
		c0,0,0,0,0,0c-0.1,0-0.4,0.1-0.6,0.4c0,0,0,0,0,0.1c-0.1,0.2,0,0.4,0.1,0.5c0.1,0.1,0.2,0.2,0.3,0.2c0,0,0,0,0,0
		c0.5,0.3,1.1,0.4,1.6,0.5c0,0,0,0,0,0c0.4,0.1,0.7,0.1,1,0.2c0,0,0,0.1,0.1,0.3c0.1,0.3,0.1,0.6,0.2,1c0,0.1,0.1,0.2,0.2,0.2
		c0.2,0.1,0.4,0,0.4,0c0,0,0,0,0,0c0.8-0.1,1.7-0.3,2.5-0.1l0,0c0.8,0.2,1.5,0.8,2.3,1.3v0l0,0c0.5,0.3,1.1,0.7,1.9,0.7l0,0
		c0,0,0,0,0,0c0.5,0,1.1,0,1.6,0c0,0,0,0,0,0c0.4,0,0.9-0.2,1.2-0.4c0,0,0,0,0,0c0.8-0.5,1.6-1.1,2.4-1.4h0c0.3-0.1,0.6-0.1,1-0.1
		c0,0,0,0,0,0c0.7,0,1.4,0,2,0.1c0,0,0,0,0.1,0c0.1,0,0.2-0.1,0.2-0.1c0.1-0.1,0.1-0.1,0.1-0.1c0-0.1,0-0.1,0,0c0,0,0,0,0-0.1
		c0.1-0.4,0.2-0.8,0.4-1c0.1-0.1,0.2-0.1,0.4-0.1c0,0,0,0,0,0c0.6-0.1,1.1-0.3,1.6-0.5c0,0,0,0,0,0c0.2-0.1,0.5-0.2,0.7-0.4
		c0,0,0,0,0,0l0,0C65.3,261.3,65.2,261,65,260.9L65,260.9z"/>
</g>
<g id="XMLID_1_">
	<path id="XMLID_3_" style="fill:#222221;" d="M19,38.1L19,38.1c-10.5,0-19-8.5-19-19v0C0,8.5,8.5,0,19,0h0c10.5,0,19,8.5,19,19v0
		C38.1,29.5,29.5,38.1,19,38.1z"/>
	<path id="XMLID_2_" style="fill-rule:evenodd;clip-rule:evenodd;fill:#FFFFFF;stroke:#222221;stroke-miterlimit:10;" d="M30.1,24.5
		L30.1,24.5C30.1,24.5,30,24.5,30.1,24.5C30,24.5,30,24.5,30.1,24.5L30.1,24.5c-0.3-0.2-0.6-0.2-0.7-0.3c0,0,0,0,0,0
		c-1.2-0.4-2.2-1.2-2.9-2.1c-0.4-0.5-0.8-1.1-1-1.8c0,0,0,0,0,0c-0.1-0.3-0.1-0.6,0-0.8c0,0,0,0,0,0c0.2-0.3,0.6-0.5,1-0.6
		c0,0,0,0,0,0c0.5-0.2,1-0.3,1.4-0.7c0,0,0,0,0,0c0.1-0.1,0.1-0.1,0.2-0.3c0,0,0-0.1,0-0.1c0-0.1,0-0.2,0-0.4c0,0,0,0,0,0
		c-0.1-0.2-0.3-0.4-0.5-0.5h0c-0.3-0.1-0.6-0.2-0.8-0.1l0,0h0c-0.3,0.1-0.5,0.2-0.7,0.2c0,0,0,0,0,0c-0.3,0.1-0.6,0.1-0.8,0
		c0,0,0-0.1,0-0.2h0c0-0.5,0-1,0-1.5c0,0,0,0,0,0c0-0.8,0.1-1.6-0.1-2.5c0,0,0,0,0,0c-0.3-1.4-1.2-2.6-2.3-3.4C22,9,21,8.7,19.9,8.6
		l0,0c-0.3,0-0.7,0-1,0c-1.4,0-2.8,0.4-3.9,1.2c-0.8,0.6-1.5,1.5-1.9,2.5v0c-0.4,1-0.4,2-0.3,3l0,0c0,0.7,0.1,1.3,0,2c0,0,0,0,0,0
		c-0.3,0.1-0.6,0-1,0h0c-0.2,0-0.5-0.1-0.7-0.2c0,0,0,0,0,0c-0.3-0.1-0.5,0-0.7,0.2c0,0,0,0,0,0c0,0,0,0,0,0
		c-0.2,0.1-0.4,0.3-0.4,0.6c0,0,0,0,0,0.1c0,0,0,0,0,0c0,0.2,0.1,0.3,0.2,0.4c0.1,0.1,0.2,0.1,0.3,0.2c0,0,0,0,0,0
		c0.5,0.3,1,0.5,1.5,0.7l0,0c0.3,0.1,0.6,0.4,0.7,0.7c0.1,0.4-0.1,0.8-0.3,1.2v0c-0.5,1.1-1.3,2-2.3,2.7c-0.5,0.4-1.1,0.6-1.7,0.8
		c0,0,0,0,0,0c-0.1,0-0.4,0.1-0.6,0.4c0,0,0,0,0,0.1c-0.1,0.2,0,0.4,0.1,0.5c0.1,0.1,0.2,0.2,0.3,0.2c0,0,0,0,0,0
		c0.5,0.3,1.1,0.4,1.6,0.5c0,0,0,0,0,0c0.4,0.1,0.7,0.1,1,0.2c0,0,0,0.1,0.1,0.3c0.1,0.3,0.1,0.6,0.2,1c0,0.1,0.1,0.2,0.2,0.2
		c0.2,0.1,0.4,0,0.4,0c0,0,0,0,0,0c0.8-0.1,1.7-0.3,2.5-0.1l0,0c0.8,0.2,1.5,0.8,2.3,1.3v0l0,0c0.5,0.3,1.1,0.7,1.9,0.7l0,0
		c0,0,0,0,0,0c0.5,0,1.1,0,1.6,0c0,0,0,0,0,0c0.4,0,0.9-0.2,1.2-0.4c0,0,0,0,0,0c0.8-0.5,1.6-1.1,2.4-1.4h0c0.3-0.1,0.6-0.1,1-0.1
		c0,0,0,0,0,0c0.7,0,1.4,0,2,0.1c0,0,0,0,0.1,0c0.1,0,0.2-0.1,0.2-0.1c0.1-0.1,0.1-0.1,0.1-0.1c0-0.1,0-0.1,0,0c0,0,0,0,0-0.1
		c0.1-0.4,0.2-0.8,0.4-1c0.1-0.1,0.2-0.1,0.4-0.1c0,0,0,0,0,0c0.6-0.1,1.1-0.3,1.6-0.5c0,0,0,0,0,0c0.2-0.1,0.5-0.2,0.7-0.4
		c0,0,0,0,0,0l0,0C30.4,25,30.3,24.7,30.1,24.5L30.1,24.5z"/>
</g>
</svg>
