<?xml version="1.0" encoding="utf-8"?>
<!-- Generator: Adobe Illustrator 23.0.4, SVG Export Plug-In . SVG Version: 6.00 Build 0)  -->
<svg version="1.1" id="Layer_1" xmlns="http://www.w3.org/2000/svg" xmlns:xlink="http://www.w3.org/1999/xlink" x="0px" y="0px"
	 viewBox="0 0 40 40" style="enable-background:new 0 0 40 40;" xml:space="preserve">
<style type="text/css">
	.st0{fill:none;stroke:#222221;stroke-width:1.5;stroke-miterlimit:10;}
</style>
<g id="XMLID_1996_">
	<path id="XMLID_2007_" class="st0" d="M20,39L20,39C9.5,39,1,30.5,1,20l0,0C1,9.5,9.5,1,20,1l0,0c10.5,0,19,8.5,19,19l0,0
		C39,30.5,30.5,39,20,39z"/>
	<g>
		<g>
			<g>
				<path d="M30.3,18.2c-0.3,0-0.6,0-0.9,0.1c-0.4-3.8-3.6-6.8-7.6-6.8c-0.5,0-0.8,0.4-0.8,0.8v13.5c0,0.5,0.4,0.8,0.8,0.8h8.4
					c2.3,0,4.2-1.9,4.2-4.2C34.5,20,32.6,18.2,30.3,18.2z"/>
			</g>
		</g>
		<g>
			<g>
				<path d="M18.5,13.1c-0.5,0-0.8,0.4-0.8,0.8v11.8c0,0.5,0.4,0.8,0.8,0.8s0.8-0.4,0.8-0.8V13.9C19.3,13.5,18.9,13.1,18.5,13.1z"/>
			</g>
		</g>
		<g>
			<g>
				<path d="M15.1,16.5c-0.5,0-0.8,0.4-0.8,0.8v8.4c0,0.5,0.4,0.8,0.8,0.8c0.5,0,0.8-0.4,0.8-0.8v-8.4
					C15.9,16.8,15.6,16.5,15.1,16.5z"/>
			</g>
		</g>
		<g>
			<g>
				<path d="M11.7,16.5c-0.5,0-0.8,0.4-0.8,0.8v8.4c0,0.5,0.4,0.8,0.8,0.8s0.8-0.4,0.8-0.8v-8.4C12.6,16.8,12.2,16.5,11.7,16.5z"/>
			</g>
		</g>
		<g>
			<g>
				<path d="M8.4,19.8c-0.5,0-0.8,0.4-0.8,0.8v5.1c0,0.5,0.4,0.8,0.8,0.8c0.5,0,0.8-0.4,0.8-0.8v-5.1C9.2,20.2,8.8,19.8,8.4,19.8z"
					/>
			</g>
		</g>
	</g>
</g>
</svg>
