<?xml version="1.0" encoding="utf-8"?>
<!-- Generator: Adobe Illustrator 23.0.4, SVG Export Plug-In . SVG Version: 6.00 Build 0)  -->
<svg version="1.1" id="Layer_1" xmlns="http://www.w3.org/2000/svg" xmlns:xlink="http://www.w3.org/1999/xlink" x="0px" y="0px"
	 viewBox="0 0 40 40" style="enable-background:new 0 0 40 40;" xml:space="preserve">
<g id="XMLID_1996_">
	<g>
		<g>
			<g>
				<path d="M30.5,19c-0.3,0-0.7,0-1,0.1c-0.4-4.3-4.1-7.7-8.5-7.7c-0.5,0-1,0.4-1,1v15.2c0,0.5,0.4,1,1,1h9.5
					c2.6,0,4.8-2.1,4.8-4.8C35.2,21.2,33.1,19,30.5,19z"/>
			</g>
		</g>
		<g>
			<g>
				<path d="M17.1,13.3c-0.5,0-1,0.4-1,1v13.3c0,0.5,0.4,1,1,1s1-0.4,1-1V14.3C18.1,13.8,17.7,13.3,17.1,13.3z"/>
			</g>
		</g>
		<g>
			<g>
				<path d="M13.3,17.1c-0.5,0-1,0.4-1,1v9.5c0,0.5,0.4,1,1,1s1-0.4,1-1v-9.5C14.3,17.6,13.9,17.1,13.3,17.1z"/>
			</g>
		</g>
		<g>
			<g>
				<path d="M9.5,17.1c-0.5,0-1,0.4-1,1v9.5c0,0.5,0.4,1,1,1s1-0.4,1-1v-9.5C10.5,17.6,10,17.1,9.5,17.1z"/>
			</g>
		</g>
		<g>
			<g>
				<path d="M5.7,21c-0.5,0-1,0.4-1,1v5.7c0,0.5,0.4,1,1,1s1-0.4,1-1v-5.7C6.7,21.4,6.2,21,5.7,21z"/>
			</g>
		</g>
	</g>
</g>
</svg>
