<?xml version="1.0" encoding="utf-8"?>
<!-- Generator: Adobe Illustrator 23.0.4, SVG Export Plug-In . SVG Version: 6.00 Build 0)  -->
<svg version="1.1" id="Layer_1" xmlns="http://www.w3.org/2000/svg" xmlns:xlink="http://www.w3.org/1999/xlink" x="0px" y="0px"
	 viewBox="0 0 38 38" style="enable-background:new 0 0 38 38;" xml:space="preserve">
<style type="text/css">
	.st0{fill:#222221;}
	.st1{fill:#FFFFFF;}
</style>
<g id="XMLID_752_">
	<path id="XMLID_1675_" class="st0" d="M19,38.1L19,38.1c-10.5,0-19-8.5-19-19l0,0C0,8.5,8.5,0,19,0l0,0c10.5,0,19,8.5,19,19l0,0
		C38.1,29.5,29.5,38.1,19,38.1z"/>
	<g>
		<g>
			<g>
				<path class="st1" d="M28.3,18.2c-0.3,0-0.6,0-0.9,0.1c-0.4-3.8-3.6-6.8-7.6-6.8c-0.5,0-0.8,0.4-0.8,0.8v13.5
					c0,0.5,0.4,0.8,0.8,0.8h8.4c2.3,0,4.2-1.9,4.2-4.2C32.5,20,30.6,18.2,28.3,18.2z"/>
			</g>
		</g>
		<g>
			<g>
				<path class="st1" d="M16.5,13.1c-0.5,0-0.8,0.4-0.8,0.8v11.8c0,0.5,0.4,0.8,0.8,0.8s0.8-0.4,0.8-0.8V13.9
					C17.3,13.5,16.9,13.1,16.5,13.1z"/>
			</g>
		</g>
		<g>
			<g>
				<path class="st1" d="M13.1,16.5c-0.5,0-0.8,0.4-0.8,0.8v8.4c0,0.5,0.4,0.8,0.8,0.8c0.5,0,0.8-0.4,0.8-0.8v-8.4
					C13.9,16.8,13.6,16.5,13.1,16.5z"/>
			</g>
		</g>
		<g>
			<g>
				<path class="st1" d="M9.7,16.5c-0.5,0-0.8,0.4-0.8,0.8v8.4c0,0.5,0.4,0.8,0.8,0.8s0.8-0.4,0.8-0.8v-8.4
					C10.6,16.8,10.2,16.5,9.7,16.5z"/>
			</g>
		</g>
		<g>
			<g>
				<path class="st1" d="M6.4,19.8c-0.5,0-0.8,0.4-0.8,0.8v5.1c0,0.5,0.4,0.8,0.8,0.8s0.8-0.4,0.8-0.8v-5.1
					C7.2,20.2,6.8,19.8,6.4,19.8z"/>
			</g>
		</g>
	</g>
</g>
</svg>
