<?xml version="1.0" encoding="utf-8"?>
<!-- Generator: Adobe Illustrator 23.0.4, SVG Export Plug-In . SVG Version: 6.00 Build 0)  -->
<svg version="1.1" id="Layer_1" xmlns="http://www.w3.org/2000/svg" xmlns:xlink="http://www.w3.org/1999/xlink" x="0px" y="0px"
	 viewBox="0 0 40 40" style="enable-background:new 0 0 40 40;" xml:space="preserve">
<g id="XMLID_2287_">
	<path id="XMLID_2288_" style="fill:#222221;" d="M20,6.1C12.3,6.1,6.1,12.3,6.1,20c0,7.7,6.2,13.9,13.9,13.9
		c7.7,0,13.9-6.2,13.9-13.9C33.9,12.3,27.7,6.1,20,6.1z M26.4,26.2c-0.3,0.4-0.8,0.6-1.2,0.3c-3.3-2-7.3-2.4-12.2-1.3
		c-0.5,0.1-0.9-0.2-1-0.6c-0.1-0.5,0.2-0.9,0.6-1c5.3-1.2,9.8-0.7,13.4,1.5C26.5,25.2,26.6,25.8,26.4,26.2z M28,22.4
		c-0.3,0.5-1,0.7-1.5,0.3c-3.7-2.3-9.4-3-13.8-1.6c-0.6,0.1-1.2-0.1-1.3-0.7c-0.1-0.6,0.1-1.2,0.7-1.3c5.1-1.5,11.3-0.8,15.6,1.9
		C28.2,21.2,28.4,21.9,28,22.4z M28.2,18.5c-4.4-2.6-11.9-2.9-16.1-1.6c-0.7,0.2-1.4-0.2-1.6-0.8c-0.2-0.7,0.2-1.4,0.8-1.6
		c4.9-1.5,13-1.2,18.2,1.9c0.6,0.3,0.8,1.2,0.5,1.8C29.6,18.6,28.8,18.8,28.2,18.5z"/>
</g>
</svg>
