<?xml version="1.0" encoding="utf-8"?>
<!-- Generator: Adobe Illustrator 23.0.4, SVG Export Plug-In . SVG Version: 6.00 Build 0)  -->
<svg version="1.1" id="Layer_1" xmlns="http://www.w3.org/2000/svg" xmlns:xlink="http://www.w3.org/1999/xlink" x="0px" y="0px"
	 viewBox="0 0 40 40" style="enable-background:new 0 0 40 40;" xml:space="preserve">
<g id="XMLID_2085_">
	<path id="XMLID_2091_" style="fill:none;stroke:#222221;stroke-width:1.5;stroke-miterlimit:10;" d="M20,39L20,39
		C9.5,39,1,30.5,1,20v0C1,9.5,9.5,1,20,1l0,0c10.5,0,19,8.5,19,19v0C39,30.5,30.5,39,20,39z"/>
	<path id="XMLID_2086_" style="fill:#222221;" d="M20,8.9c-6.1,0-11.1,5-11.1,11.1c0,6.1,5,11.1,11.1,11.1c6.1,0,11.1-5,11.1-11.1
		C31.1,13.9,26.1,8.9,20,8.9z M25.1,25c-0.2,0.3-0.6,0.4-0.9,0.2c-2.6-1.6-5.9-1.9-9.8-1.1c-0.4,0.1-0.7-0.2-0.8-0.5
		c-0.1-0.4,0.2-0.7,0.5-0.8c4.2-0.9,7.9-0.6,10.8,1.2C25.2,24.2,25.3,24.6,25.1,25z M26.5,21.9c-0.3,0.4-0.8,0.6-1.2,0.3
		c-3-1.8-7.6-2.4-11.1-1.3c-0.4,0.1-0.9-0.1-1.1-0.6c-0.1-0.4,0.1-0.9,0.6-1.1c4.1-1.2,9.1-0.6,12.5,1.5
		C26.6,20.9,26.7,21.5,26.5,21.9z M26.6,18.8c-3.6-2.1-9.5-2.3-12.9-1.3c-0.6,0.2-1.1-0.2-1.3-0.7c-0.2-0.6,0.2-1.1,0.7-1.3
		c3.9-1.2,10.5-0.9,14.6,1.5c0.5,0.3,0.7,0.9,0.4,1.4C27.7,18.9,27.1,19.1,26.6,18.8z"/>
</g>
</svg>
