<?xml version="1.0" encoding="utf-8"?>
<!-- Generator: Adobe Illustrator 23.0.4, SVG Export Plug-In . SVG Version: 6.00 Build 0)  -->
<svg version="1.1" id="Layer_1" xmlns="http://www.w3.org/2000/svg" xmlns:xlink="http://www.w3.org/1999/xlink" x="0px" y="0px"
	 viewBox="0 0 38 38" style="enable-background:new 0 0 38 38;" xml:space="preserve">
<g id="XMLID_1698_">
	<path id="XMLID_1704_" style="fill:#222221;" d="M19,38.1L19,38.1c-10.5,0-19-8.5-19-19v0C0,8.5,8.5,0,19,0l0,0
		c10.5,0,19,8.5,19,19v0C38.1,29.5,29.5,38.1,19,38.1z"/>
	<path id="XMLID_1699_" style="fill:#FFFFFF;" d="M19,7.9c-6.1,0-11.1,5-11.1,11.1c0,6.1,5,11.1,11.1,11.1c6.1,0,11.1-5,11.1-11.1
		C30.2,12.9,25.2,7.9,19,7.9z M24.1,24c-0.2,0.3-0.6,0.4-0.9,0.2c-2.6-1.6-5.9-1.9-9.8-1.1c-0.4,0.1-0.7-0.2-0.8-0.5
		c-0.1-0.4,0.2-0.7,0.5-0.8c4.2-0.9,7.9-0.6,10.8,1.2C24.3,23.2,24.3,23.6,24.1,24z M25.5,20.9c-0.3,0.4-0.8,0.6-1.2,0.3
		c-3-1.8-7.6-2.4-11.1-1.3c-0.4,0.1-0.9-0.1-1.1-0.6c-0.1-0.4,0.1-0.9,0.6-1.1c4.1-1.2,9.1-0.6,12.5,1.5
		C25.6,20,25.8,20.5,25.5,20.9z M25.6,17.8c-3.6-2.1-9.5-2.3-12.9-1.3c-0.6,0.2-1.1-0.2-1.3-0.7c-0.2-0.6,0.2-1.1,0.7-1.3
		c3.9-1.2,10.5-0.9,14.6,1.5c0.5,0.3,0.7,0.9,0.4,1.4C26.8,17.9,26.1,18.1,25.6,17.8z"/>
</g>
</svg>
