<?xml version="1.0" encoding="utf-8"?>
<!-- Generator: Adobe Illustrator 23.0.4, SVG Export Plug-In . SVG Version: 6.00 Build 0)  -->
<svg version="1.1" id="Layer_1" xmlns="http://www.w3.org/2000/svg" xmlns:xlink="http://www.w3.org/1999/xlink" x="0px" y="0px"
	 viewBox="0 0 38 38" style="enable-background:new 0 0 38 38;" xml:space="preserve">
<g id="XMLID_1723_">
	<path id="XMLID_1725_" style="fill:#222221;" d="M19,38L19,38c-10.5,0-19-8.5-19-19v0C0,8.5,8.5,0,19,0l0,0
		c10.5,0,19,8.5,19,19v0C38,29.5,29.5,38,19,38z"/>
	<path id="XMLID_1724_" style="fill:#FFFFFF;" d="M8.9,25.4c1.8,1.2,4,1.9,6.4,1.9c7.7,0,12.1-6.5,11.8-12.4
		c0.8-0.6,1.5-1.3,2.1-2.2c-0.7,0.3-1.5,0.6-2.4,0.7c0.9-0.5,1.5-1.3,1.8-2.3c-0.8,0.5-1.7,0.8-2.6,1c-0.8-0.8-1.8-1.3-3-1.3
		c-2.7,0-4.7,2.5-4.1,5.1c-3.5-0.2-6.5-1.8-8.6-4.3c-1.1,1.9-0.6,4.3,1.3,5.6c-0.7,0-1.3-0.2-1.9-0.5c0,1.9,1.3,3.7,3.3,4.1
		c-0.6,0.2-1.2,0.2-1.9,0.1c0.5,1.7,2.1,2.9,3.9,2.9C13.3,25,11.1,25.7,8.9,25.4z"/>
</g>
</svg>
