<?xml version="1.0" encoding="utf-8"?>
<!-- Generator: Adobe Illustrator 23.0.4, SVG Export Plug-In . SVG Version: 6.00 Build 0)  -->
<svg version="1.1" id="Layer_1" xmlns="http://www.w3.org/2000/svg" xmlns:xlink="http://www.w3.org/1999/xlink" x="0px" y="0px"
	 viewBox="0 0 40 40" style="enable-background:new 0 0 40 40;" xml:space="preserve">
<g id="XMLID_2111_">
	<path id="XMLID_2113_" style="fill:none;stroke:#222221;stroke-width:1.5;stroke-miterlimit:10;" d="M20,39L20,39
		C9.5,39,1,30.5,1,20v0C1,9.5,9.5,1,20,1l0,0c10.5,0,19,8.5,19,19v0C39,30.5,30.5,39,20,39z"/>
	<path id="XMLID_2112_" style="fill:#222221;" d="M9.9,26.4c1.8,1.2,4,1.9,6.4,1.9c7.7,0,12.1-6.5,11.8-12.4
		c0.8-0.6,1.5-1.3,2.1-2.2c-0.7,0.3-1.5,0.6-2.4,0.7c0.9-0.5,1.5-1.3,1.8-2.3c-0.8,0.5-1.7,0.8-2.6,1c-0.8-0.8-1.8-1.3-3-1.3
		c-2.7,0-4.7,2.5-4.1,5.1c-3.5-0.2-6.5-1.8-8.6-4.3c-1.1,1.9-0.6,4.3,1.3,5.6c-0.7,0-1.3-0.2-1.9-0.5c0,1.9,1.3,3.7,3.3,4.1
		c-0.6,0.2-1.2,0.2-1.9,0.1c0.5,1.7,2.1,2.9,3.9,2.9C14.3,26,12.1,26.6,9.9,26.4z"/>
</g>
</svg>
