<?xml version="1.0" encoding="utf-8"?>
<!-- Generator: Adobe Illustrator 23.0.4, SVG Export Plug-In . SVG Version: 6.00 Build 0)  -->
<svg version="1.1" id="Layer_1" xmlns="http://www.w3.org/2000/svg" xmlns:xlink="http://www.w3.org/1999/xlink" x="0px" y="0px"
	 viewBox="0 0 38 38" style="enable-background:new 0 0 38 38;" xml:space="preserve">
<g id="XMLID_737_">
	<path id="XMLID_739_" style="fill:#222221;" d="M19,38.1L19,38.1c-10.5,0-19-8.5-19-19v0C0,8.5,8.5,0,19,0h0c10.5,0,19,8.5,19,19v0
		C38.1,29.5,29.5,38.1,19,38.1z"/>
	<path id="XMLID_738_" style="fill:#FFFFFF;" d="M26.7,9.7c-3-0.1-5,1.6-6.1,5.1c0.5-0.2,1.1-0.4,1.6-0.4c1.1,0,1.6,0.6,1.5,1.9
		c-0.1,0.7-0.5,1.8-1.5,3.3c-0.9,1.4-1.6,2.1-2,2.1c-0.6,0-1.1-1.1-1.6-3.3c-0.2-0.6-0.5-2.3-0.9-4.9c-0.4-2.5-1.4-3.6-3.1-3.4
		c-0.7,0.1-1.8,0.7-3.2,1.9c-1,0.9-2.1,1.9-3.2,2.8l1,1.3c1-0.7,1.5-1,1.7-1c0.7,0,1.4,1.2,2.1,3.5c0.6,2.1,1.2,4.3,1.7,6.4
		c0.9,2.3,1.9,3.5,3.2,3.5c2,0,4.5-1.9,7.4-5.7c2.8-3.7,4.3-6.5,4.4-8.6C29.9,11.2,28.9,9.8,26.7,9.7z"/>
</g>
</svg>
