<?xml version="1.0" encoding="utf-8"?>
<!-- Generator: Adobe Illustrator 23.0.4, SVG Export Plug-In . SVG Version: 6.00 Build 0)  -->
<svg version="1.1" id="Layer_1" xmlns="http://www.w3.org/2000/svg" xmlns:xlink="http://www.w3.org/1999/xlink" x="0px" y="0px"
	 viewBox="0 0 40 40" style="enable-background:new 0 0 40 40;" xml:space="preserve">
<g id="XMLID_823_">
	<path id="XMLID_832_" style="fill:none;stroke:#222221;stroke-width:1.5;stroke-miterlimit:10;" d="M20,39L20,39
		C9.5,39,1,30.5,1,20v0C1,9.5,9.5,1,20,1l0,0c10.5,0,19,8.5,19,19v0C39,30.5,30.5,39,20,39z"/>
	<path id="XMLID_831_" style="fill:#222221;" d="M27.6,10.7c-3-0.1-5,1.6-6.1,5.1c0.5-0.2,1.1-0.4,1.6-0.4c1.1,0,1.6,0.6,1.5,1.9
		c-0.1,0.7-0.5,1.8-1.5,3.3c-0.9,1.4-1.6,2.1-2,2.1c-0.6,0-1.1-1.1-1.6-3.3c-0.2-0.6-0.5-2.3-0.9-4.9c-0.4-2.5-1.4-3.6-3.1-3.4
		c-0.7,0.1-1.8,0.7-3.2,1.9c-1,0.9-2.1,1.9-3.2,2.8l1,1.3c1-0.7,1.5-1,1.7-1c0.7,0,1.4,1.2,2.1,3.5c0.6,2.1,1.2,4.3,1.7,6.4
		c0.9,2.3,1.9,3.5,3.2,3.5c2,0,4.5-1.9,7.4-5.7c2.8-3.7,4.3-6.5,4.4-8.6C30.9,12.2,29.9,10.7,27.6,10.7z"/>
</g>
</svg>
