<?xml version="1.0" encoding="utf-8"?>
<!-- Generator: Adobe Illustrator 23.0.4, SVG Export Plug-In . SVG Version: 6.00 Build 0)  -->
<svg version="1.1" id="Layer_1" xmlns="http://www.w3.org/2000/svg" xmlns:xlink="http://www.w3.org/1999/xlink" x="0px" y="0px"
	 viewBox="0 0 40 40" style="enable-background:new 0 0 40 40;" xml:space="preserve">
<g id="XMLID_2282_">
	<path id="XMLID_2283_" style="fill:#222221;" d="M29.5,8.4c-3.7-0.1-6.3,2-7.6,6.3c0.7-0.3,1.3-0.4,2-0.4c1.4,0,2,0.8,1.8,2.3
		c-0.1,0.9-0.7,2.3-1.8,4.1c-1.1,1.8-2,2.7-2.5,2.7c-0.7,0-1.4-1.4-2-4.1c-0.2-0.8-0.6-2.9-1.1-6.2c-0.5-3.1-1.8-4.5-3.9-4.3
		c-0.9,0.1-2.2,0.9-4,2.4c-1.3,1.2-2.6,2.3-3.9,3.5l1.3,1.6C9,15.4,9.7,15,9.9,15c0.9,0,1.8,1.5,2.6,4.3c0.7,2.7,1.4,5.3,2.2,8
		c1.1,2.9,2.4,4.3,4,4.3c2.5,0,5.6-2.4,9.3-7.1c3.5-4.6,5.4-8.1,5.5-10.8C33.6,10.2,32.3,8.4,29.5,8.4z"/>
</g>
</svg>
