<?xml version="1.0" encoding="utf-8"?>
<!-- Generator: Adobe Illustrator 23.0.4, SVG Export Plug-In . SVG Version: 6.00 Build 0)  -->
<svg version="1.1" id="Layer_1" xmlns="http://www.w3.org/2000/svg" xmlns:xlink="http://www.w3.org/1999/xlink" x="0px" y="0px"
	 viewBox="0 0 40 40" style="enable-background:new 0 0 40 40;" xml:space="preserve">
<g id="XMLID_2124_">
	<path id="XMLID_2130_" style="fill:none;stroke:#222221;stroke-width:1.5;stroke-miterlimit:10;" d="M20,39L20,39
		C9.5,39,1,30.5,1,20v0C1,9.5,9.5,1,20,1l0,0c10.5,0,19,8.5,19,19v0C39,30.5,30.5,39,20,39z"/>
	<g id="XMLID_2125_">
		<path id="XMLID_2127_" style="fill-rule:evenodd;clip-rule:evenodd;fill:#222221;" d="M30.4,19.5c-0.1-5.5-4.7-9.9-10.2-9.9
			c-5.5,0-10,4.3-10.2,9.7c0,0.1,0,0.3,0,0.4c0,1.9,0.5,3.7,1.5,5.3l-1.8,5.5l5.7-1.8c1.5,0.8,3.2,1.3,5,1.3
			c5.7,0,10.2-4.6,10.2-10.2C30.4,19.6,30.4,19.6,30.4,19.5z M20.2,28.3c-1.8,0-3.4-0.5-4.7-1.4l-3.3,1.1l1.1-3.2
			c-1-1.4-1.6-3.1-1.6-5c0-0.3,0-0.6,0-0.8c0.4-4.3,4.1-7.7,8.6-7.7c4.5,0,8.2,3.5,8.6,7.9c0,0.2,0,0.4,0,0.7
			C28.8,24.4,24.9,28.3,20.2,28.3z"/>
		<path id="XMLID_2126_" style="fill-rule:evenodd;clip-rule:evenodd;fill:#222221;" d="M24.9,21.8c-0.3-0.1-1.5-0.7-1.7-0.8
			c-0.2-0.1-0.4-0.1-0.6,0.1c-0.2,0.2-0.7,0.8-0.8,1c-0.1,0.2-0.3,0.2-0.5,0.1c-0.2-0.1-1.1-0.4-2-1.2c-0.7-0.7-1.3-1.5-1.4-1.7
			c-0.1-0.2,0-0.4,0.1-0.5c0.1-0.1,0.2-0.3,0.4-0.4c0,0,0.1-0.1,0.1-0.1c0.1-0.1,0.1-0.2,0.2-0.3c0.1-0.2,0-0.3,0-0.4
			c-0.1-0.1-0.6-1.4-0.8-1.9c-0.2-0.5-0.4-0.4-0.6-0.4c-0.1,0-0.3,0-0.5,0c-0.2,0-0.4,0.1-0.7,0.3c-0.2,0.2-0.9,0.9-0.9,2.1
			c0,0.3,0.1,0.6,0.1,0.8c0.3,0.9,0.8,1.6,0.9,1.7c0.1,0.2,1.7,2.8,4.3,3.8c2.6,1,2.6,0.7,3,0.6c0.5,0,1.5-0.6,1.7-1.2
			c0.2-0.6,0.2-1.1,0.1-1.2C25.3,22,25.1,21.9,24.9,21.8z"/>
	</g>
</g>
</svg>
