<?xml version="1.0" encoding="utf-8"?>
<!-- Generator: Adobe Illustrator 23.0.4, SVG Export Plug-In . SVG Version: 6.00 Build 0)  -->
<svg version="1.1" id="Layer_1" xmlns="http://www.w3.org/2000/svg" xmlns:xlink="http://www.w3.org/1999/xlink" x="0px" y="0px"
	 viewBox="0 0 40 40" style="enable-background:new 0 0 40 40;" xml:space="preserve">
<g id="XMLID_2331_">
	<g id="XMLID_2332_">
		<path id="XMLID_2334_" style="fill-rule:evenodd;clip-rule:evenodd;fill:#222221;" d="M33,19.3C32.8,12.5,27.2,7,20.2,7
			C13.4,7,7.8,12.4,7.5,19.1c0,0.2,0,0.4,0,0.6c0,2.4,0.7,4.6,1.8,6.5L7,33l7.1-2.2c1.8,1,3.9,1.6,6.2,1.6c7.1,0,12.8-5.7,12.8-12.7
			C33,19.6,33,19.4,33,19.3z M20.2,30.3c-2.2,0-4.2-0.6-5.9-1.8l-4.1,1.3l1.3-4c-1.3-1.8-2-3.9-2-6.2c0-0.3,0-0.7,0.1-1
			C10.1,13.2,14.7,9,20.2,9c5.6,0,10.3,4.3,10.7,9.8c0,0.3,0,0.6,0,0.8C31,25.5,26.2,30.3,20.2,30.3z"/>
		<path id="XMLID_2333_" style="fill-rule:evenodd;clip-rule:evenodd;fill:#222221;" d="M26.1,22.2c-0.3-0.2-1.9-0.9-2.1-1
			c-0.3-0.1-0.5-0.2-0.7,0.2c-0.2,0.3-0.8,1-1,1.2c-0.2,0.2-0.4,0.2-0.7,0.1c-0.3-0.2-1.3-0.5-2.5-1.5c-0.9-0.8-1.6-1.8-1.7-2.1
			c-0.2-0.3,0-0.5,0.1-0.6c0.1-0.1,0.3-0.4,0.5-0.5c0-0.1,0.1-0.1,0.1-0.1c0.1-0.1,0.1-0.2,0.2-0.4c0.1-0.2,0.1-0.4,0-0.5
			c-0.1-0.2-0.7-1.7-1-2.3c-0.3-0.6-0.5-0.5-0.7-0.5c-0.2,0-0.4,0-0.6,0c-0.2,0-0.6,0.1-0.8,0.4c-0.3,0.3-1.1,1.1-1.1,2.6
			c0,0.4,0.1,0.7,0.2,1.1c0.3,1.1,1,2,1.1,2.2c0.2,0.2,2.2,3.4,5.3,4.7c3.2,1.2,3.2,0.8,3.8,0.8c0.6,0,1.9-0.7,2.1-1.5
			c0.3-0.7,0.3-1.3,0.2-1.5C26.6,22.5,26.4,22.4,26.1,22.2z"/>
	</g>
</g>
</svg>
