<?xml version="1.0" encoding="utf-8"?>
<!-- Generator: Adobe Illustrator 23.0.4, SVG Export Plug-In . SVG Version: 6.00 Build 0)  -->
<svg version="1.1" id="Layer_1" xmlns="http://www.w3.org/2000/svg" xmlns:xlink="http://www.w3.org/1999/xlink" x="0px" y="0px"
	 viewBox="0 0 40 40" style="enable-background:new 0 0 40 40;" xml:space="preserve">
<g id="XMLID_2245_">
	<g id="XMLID_2250_">
		<path id="XMLID_2252_" style="fill:#222221;" d="M38.2,10.8c-0.4-1.6-1.7-2.9-3.4-3.4C31.9,6.6,20,6.6,20,6.6S8.1,6.6,5.2,7.4
			c-1.6,0.4-2.9,1.7-3.4,3.4C1,13.8,1,20,1,20s0,6.2,0.8,9.2c0.4,1.6,1.7,2.9,3.4,3.4c3,0.8,14.8,0.8,14.8,0.8s11.9,0,14.8-0.8
			c1.6-0.4,2.9-1.7,3.4-3.4C39,26.2,39,20,39,20S39,13.8,38.2,10.8z"/>
		<polygon id="XMLID_2251_" style="fill:#FFFFFF;" points="16.1,25.6 16.1,14.4 26,20 		"/>
	</g>
</g>
</svg>
