<?xml version="1.0" encoding="utf-8"?>
<!-- Generator: Adobe Illustrator 23.0.4, SVG Export Plug-In . SVG Version: 6.00 Build 0)  -->
<svg version="1.1" id="Layer_1" xmlns="http://www.w3.org/2000/svg" xmlns:xlink="http://www.w3.org/1999/xlink" x="0px" y="0px"
	 viewBox="0 0 40 40" style="enable-background:new 0 0 40 40;" xml:space="preserve">
<g id="XMLID_2116_">
	<path id="XMLID_2123_" style="fill:none;stroke:#222221;stroke-width:1.5;stroke-miterlimit:10;" d="M20,39L20,39
		C9.5,39,1,30.5,1,20v0C1,9.5,9.5,1,20,1l0,0c10.5,0,19,8.5,19,19v0C39,30.5,30.5,39,20,39z"/>
	<g id="XMLID_2117_">
		<path id="XMLID_2121_" style="fill:#222221;" d="M34.6,12.6c-0.4-1.3-1.4-2.4-2.7-2.7C29.5,9.3,20,9.3,20,9.3s-9.5,0-11.9,0.6
			c-1.3,0.4-2.3,1.4-2.7,2.7C4.8,15,4.8,20,4.8,20s0,5,0.6,7.4c0.4,1.3,1.4,2.4,2.7,2.7c2.4,0.6,11.9,0.6,11.9,0.6s9.5,0,11.9-0.6
			c1.3-0.4,2.3-1.4,2.7-2.7c0.6-2.4,0.6-7.4,0.6-7.4S35.2,15,34.6,12.6z"/>
		<polygon id="XMLID_2118_" style="fill:#FFFFFF;" points="16.9,24.5 16.9,15.5 24.8,20 		"/>
	</g>
</g>
</svg>
