<?xml version="1.0" encoding="utf-8"?>
<!-- Generator: Adobe Illustrator 24.0.1, SVG Export Plug-In . SVG Version: 6.00 Build 0)  -->
<svg version="1.1" id="Layer_1" xmlns="http://www.w3.org/2000/svg" xmlns:xlink="http://www.w3.org/1999/xlink" x="0px" y="0px"
	 viewBox="0 0 960 560" style="enable-background:new 0 0 960 560;" xml:space="preserve">
<g transform="translate(-350,550)">
	<path style="fill:#6699CC;stroke:#130C0E;" d="M1113.6-228.1l35.9,20.7l35.9-20.7v-41.5l-35.9-20.7l-35.9,20.7V-228.1z"/>
	<text transform="matrix(1 0 0 1 1141.2335 -244.6889)" style="font-family:'ArialMT'; font-size:12px;">DE</text>
	<path style="fill:#6699CC;stroke:#130C0E;" d="M1077.7-165.9l35.9,20.7l35.9-20.7v-41.5l-35.9-20.7l-35.9,20.7V-165.9z"/>
	<text transform="matrix(1 0 0 1 1104.9785 -182.4667)" style="font-family:'ArialMT'; font-size:12px;">DC</text>
	<path style="fill:#6699CC;stroke:#130C0E;" d="M1005.9-83l-35.9-20.7L934-83v41.5l35.9,20.7l35.9-20.7V-83z"/>
	<text transform="matrix(1 0 0 1 962.9465 -58.0222)" style="font-family:'ArialMT'; font-size:12px;">FL</text>
	<path style="fill:#6699CC;stroke:#130C0E;" d="M969.9-103.7l35.9,20.7l35.9-20.7v-41.5l-35.9-20.7l-35.9,20.7V-103.7z"/>
	<text transform="matrix(1 0 0 1 997.2036 -120.2444)" style="font-family:'ArialMT'; font-size:12px;">GA</text>
	<path style="fill:#6699CC;stroke:#130C0E;" d="M359.2-41.5l35.9,20.7l35.9-20.7V-83l-35.9-20.7L359.2-83V-41.5z"/>
	<text transform="matrix(1 0 0 1 389.1642 -58.0222)" style="font-family:'ArialMT'; font-size:12px;">HI</text>
	<path style="fill:#6699CC;stroke:#130C0E;" d="M502.9-290.4l35.9,20.7l35.9-20.7v-41.5l-35.9-20.7l-35.9,20.7V-290.4z"/>
	<text transform="matrix(1 0 0 1 532.8602 -306.9111)" style="font-family:'ArialMT'; font-size:12px;">ID</text>
	<path style="fill:#6699CC;stroke:#130C0E;" d="M790.3-290.4l35.9,20.7l35.9-20.7v-41.5l-35.9-20.7l-35.9,20.7V-290.4z"/>
	<text transform="matrix(1 0 0 1 821.2485 -306.9111)" style="font-family:'ArialMT'; font-size:12px;">IL</text>
	<path style="fill:#6699CC;stroke:#130C0E;" d="M862.2-290.4l35.9,20.7l35.9-20.7v-41.5l-35.9-20.7l-35.9,20.7V-290.4z"/>
	<text transform="matrix(1 0 0 1 892.1004 -306.9111)" style="font-family:'ArialMT'; font-size:12px;">IN</text>
	<path style="fill:#6699CC;stroke:#130C0E;" d="M718.5-290.4l35.9,20.7l35.9-20.7v-41.5l-35.9-20.7l-35.9,20.7V-290.4z"/>
	<text transform="matrix(1 0 0 1 748.7354 -306.9111)" style="font-family:'ArialMT'; font-size:12px;">IA</text>
	<path style="fill:#6699CC;stroke:#130C0E;" d="M718.5-165.9l35.9,20.7l35.9-20.7v-41.5l-35.9-20.7l-35.9,20.7V-165.9z"/>
	<text transform="matrix(1 0 0 1 746.4005 -182.4667)" style="font-family:'ArialMT'; font-size:12px;">KS</text>
	<path style="fill:#6699CC;stroke:#130C0E;" d="M826.3-228.1l35.9,20.7l35.9-20.7v-41.5l-35.9-20.7l-35.9,20.7V-228.1z"/>
	<text transform="matrix(1 0 0 1 854.1725 -244.6889)" style="font-family:'ArialMT'; font-size:12px;">KY</text>
	<path style="fill:#6699CC;stroke:#130C0E;" d="M754.4-103.7L790.3-83l35.9-20.7v-41.5l-35.9-20.7l-35.9,20.7V-103.7z"/>
	<text transform="matrix(1 0 0 1 782.9895 -120.2444)" style="font-family:'ArialMT'; font-size:12px;">LA</text>
	<path style="fill:#6699CC;stroke:#130C0E;" d="M1185.5-477l35.9,20.7l35.9-20.7v-41.5l-35.9-20.7l-35.9,20.7V-477z"/>
	<text transform="matrix(1 0 0 1 1212.4166 -493.5778)" style="font-family:'ArialMT'; font-size:12px;">ME</text>
	<path style="fill:#6699CC;stroke:#130C0E;" d="M1041.8-228.1l35.9,20.7l35.9-20.7v-41.5l-35.9-20.7l-35.9,20.7V-228.1z"/>
	<text transform="matrix(1 0 0 1 1068.3894 -244.6889)" style="font-family:'ArialMT'; font-size:12px;">MD</text>
	<path style="fill:#6699CC;stroke:#130C0E;" d="M1113.6-352.6l35.9,20.7l35.9-20.7v-41.5l-35.9-20.7l-35.9,20.7V-352.6z"/>
	<text transform="matrix(1 0 0 1 1140.5685 -369.1334)" style="font-family:'ArialMT'; font-size:12px;">MA</text>
	<path style="fill:#6699CC;stroke:#130C0E;" d="M898.1-352.6l35.9,20.7l35.9-20.7v-41.5L934-414.8l-35.9,20.7V-352.6z"/>
	<text transform="matrix(1 0 0 1 927.3594 -369.1334)" style="font-family:'ArialMT'; font-size:12px;">MI</text>
	<path style="fill:#6699CC;stroke:#130C0E;" d="M682.6-352.6l35.9,20.7l35.9-20.7v-41.5l-35.9-20.7l-35.9,20.7V-352.6z"/>
	<text transform="matrix(1 0 0 1 709.1493 -369.1334)" style="font-family:'ArialMT'; font-size:12px;">MN</text>
	<path style="fill:#6699CC;stroke:#130C0E;" d="M826.3-103.7L862.2-83l35.9-20.7v-41.5l-35.9-20.7l-35.9,20.7V-103.7z"/>
	<text transform="matrix(1 0 0 1 853.1764 -120.2444)" style="font-family:'ArialMT'; font-size:12px;">MS</text>
	<path style="fill:#6699CC;stroke:#130C0E;" d="M754.4-228.1l35.9,20.7l35.9-20.7v-41.5l-35.9-20.7l-35.9,20.7V-228.1z"/>
	<text transform="matrix(1 0 0 1 780.6633 -244.6889)" style="font-family:'ArialMT'; font-size:12px;">MO</text>
	<path style="fill:#6699CC;stroke:#130C0E;" d="M538.9-352.6l35.9,20.7l35.9-20.7v-41.5l-35.9-20.7l-35.9,20.7V-352.6z"/>
	<text transform="matrix(1 0 0 1 566.1212 -369.1334)" style="font-family:'ArialMT'; font-size:12px;">MT</text>
	<path style="fill:#6699CC;stroke:#130C0E;" d="M682.6-228.1l35.9,20.7l35.9-20.7v-41.5l-35.9-20.7l-35.9,20.7V-228.1z"/>
	<text transform="matrix(1 0 0 1 710.1454 -244.6889)" style="font-family:'ArialMT'; font-size:12px;">NE</text>
	<path style="fill:#6699CC;stroke:#130C0E;" d="M538.9-228.1l35.9,20.7l35.9-20.7v-41.5l-35.9-20.7l-35.9,20.7V-228.1z"/>
	<text transform="matrix(1 0 0 1 566.4493 -244.6889)" style="font-family:'ArialMT'; font-size:12px;">NV</text>
	<path style="fill:#6699CC;stroke:#130C0E;" d="M1149.6-414.8l35.9,20.7l35.9-20.7v-41.5l-35.9-20.7l-35.9,20.7V-414.8z"/>
	<text transform="matrix(1 0 0 1 1176.8265 -431.3555)" style="font-family:'ArialMT'; font-size:12px;">NH</text>
	<path style="fill:#6699CC;stroke:#130C0E;" d="M1077.7-290.4l35.9,20.7l35.9-20.7v-41.5l-35.9-20.7l-35.9,20.7V-290.4z"/>
	<text transform="matrix(1 0 0 1 1106.3115 -306.9111)" style="font-family:'ArialMT'; font-size:12px;">NJ</text>
	<path style="fill:#6699CC;stroke:#130C0E;" d="M646.6-165.9l35.9,20.7l35.9-20.7v-41.5l-35.9-20.7l-35.9,20.7V-165.9z"/>
	<text transform="matrix(1 0 0 1 673.2253 -182.4667)" style="font-family:'ArialMT'; font-size:12px;">NM</text>
	<path style="fill:#6699CC;stroke:#130C0E;" d="M1041.8-352.6l35.9,20.7l35.9-20.7v-41.5l-35.9-20.7l-35.9,20.7V-352.6z"/>
	<text transform="matrix(1 0 0 1 1069.3855 -369.1334)" style="font-family:'ArialMT'; font-size:12px;">NY</text>
	<path style="fill:#6699CC;stroke:#130C0E;" d="M934-165.9l35.9,20.7l35.9-20.7v-41.5l-35.9-20.7L934-207.4V-165.9z"/>
	<text transform="matrix(1 0 0 1 961.2824 -182.4667)" style="font-family:'ArialMT'; font-size:12px;">NC</text>
	<path style="fill:#6699CC;stroke:#130C0E;" d="M610.7-352.6l35.9,20.7l35.9-20.7v-41.5l-35.9-20.7l-35.9,20.7V-352.6z"/>
	<text transform="matrix(1 0 0 1 637.9663 -369.1334)" style="font-family:'ArialMT'; font-size:12px;">ND</text>
	<path style="fill:#6699CC;stroke:#130C0E;" d="M934-290.4l35.9,20.7l35.9-20.7v-41.5l-35.9-20.7L934-331.9V-290.4z"/>
	<text transform="matrix(1 0 0 1 960.9484 -306.9111)" style="font-family:'ArialMT'; font-size:12px;">OH</text>
	<path style="fill:#6699CC;stroke:#130C0E;" d="M682.6-103.7L718.5-83l35.9-20.7v-41.5l-35.9-20.7l-35.9,20.7V-103.7z"/>
	<text transform="matrix(1 0 0 1 709.8114 -120.2444)" style="font-family:'ArialMT'; font-size:12px;">OK</text>
	<path style="fill:#6699CC;stroke:#130C0E;" d="M502.9-207.4l35.9-20.7v-41.5l-35.9-20.7L467-269.6v41.5L502.9-207.4z"/>
	<text transform="matrix(1 0 0 1 493.9362 -244.6889)" style="font-family:'ArialMT'; font-size:12px;">OR</text>
	<path style="fill:#6699CC;stroke:#130C0E;" d="M1005.9-290.4l35.9,20.7l35.9-20.7v-41.5l-35.9-20.7l-35.9,20.7V-290.4z"/>
	<text transform="matrix(1 0 0 1 1033.7926 -306.9111)" style="font-family:'ArialMT'; font-size:12px;">PA</text>
	<path style="fill:#6699CC;stroke:#130C0E;" d="M1185.5-352.6l35.9,20.7l35.9-20.7v-41.5l-35.9-20.7l-35.9,20.7V-352.6z"/>
	<text transform="matrix(1 0 0 1 1215.4166 -369.1334)" style="font-family:'ArialMT'; font-size:12px;">RI</text>
	<path style="fill:#6699CC;stroke:#130C0E;" d="M1005.9-165.9l35.9,20.7l35.9-20.7v-41.5l-35.9-20.7l-35.9,20.7V-165.9z"/>
	<text transform="matrix(1 0 0 1 1033.4615 -182.4667)" style="font-family:'ArialMT'; font-size:12px;">SC</text>
	<path style="fill:#6699CC;stroke:#130C0E;" d="M646.6-290.4l35.9,20.7l35.9-20.7v-41.5l-35.9-20.7l-35.9,20.7V-290.4z"/>
	<text transform="matrix(1 0 0 1 674.2214 -306.9111)" style="font-family:'ArialMT'; font-size:12px;">SD</text>
	<path style="fill:#6699CC;stroke:#130C0E;" d="M862.2-165.9l35.9,20.7l35.9-20.7v-41.5l-35.9-20.7l-35.9,20.7V-165.9z"/>
	<text transform="matrix(1 0 0 1 890.1024 -182.4667)" style="font-family:'ArialMT'; font-size:12px;">TN</text>
	<path style="fill:#6699CC;stroke:#130C0E;" d="M790.3-83l-35.9-20.7L718.5-83v41.5l35.9,20.7l35.9-20.7V-83z"/>
	<text transform="matrix(1 0 0 1 746.7374 -58.0222)" style="font-family:'ArialMT'; font-size:12px;">TX</text>
	<path style="fill:#6699CC;stroke:#130C0E;" d="M574.8-165.9l35.9,20.7l35.9-20.7v-41.5l-35.9-20.7l-35.9,20.7V-165.9z"/>
	<text transform="matrix(1 0 0 1 602.7103 -182.4667)" style="font-family:'ArialMT'; font-size:12px;">UT</text>
	<path style="fill:#6699CC;stroke:#130C0E;" d="M1077.7-414.8l35.9,20.7l35.9-20.7v-41.5l-35.9-20.7l-35.9,20.7V-414.8z"/>
	<text transform="matrix(1 0 0 1 1105.9775 -431.3555)" style="font-family:'ArialMT'; font-size:12px;">VT</text>
	<path style="fill:#6699CC;stroke:#130C0E;" d="M969.9-228.1l35.9,20.7l35.9-20.7v-41.5l-35.9-20.7l-35.9,20.7V-228.1z"/>
	<text transform="matrix(1 0 0 1 997.8686 -244.6889)" style="font-family:'ArialMT'; font-size:12px;">VA</text>
	<path style="fill:#6699CC;stroke:#130C0E;" d="M502.9-331.9l35.9-20.7v-41.5l-35.9-20.7L467-394.1v41.5L502.9-331.9z"/>
	<text transform="matrix(1 0 0 1 493.2712 -369.1334)" style="font-family:'ArialMT'; font-size:12px;">WA</text>
	<path style="fill:#6699CC;stroke:#130C0E;" d="M898.1-228.1l35.9,20.7l35.9-20.7v-41.5L934-290.4l-35.9,20.7V-228.1z"/>
	<text transform="matrix(1 0 0 1 924.3594 -244.6889)" style="font-family:'ArialMT'; font-size:12px;">WV</text>
	<path style="fill:#6699CC;stroke:#130C0E;" d="M754.4-352.6l35.9,20.7l35.9-20.7v-41.5l-35.9-20.7l-35.9,20.7V-352.6z"/>
	<text transform="matrix(1 0 0 1 782.9983 -369.1334)" style="font-family:'ArialMT'; font-size:12px;">WI</text>
	<path style="fill:#CCCC99;stroke:#130C0E;" d="M574.8-290.4l35.9,20.7l35.9-20.7v-41.5l-35.9-20.7l-35.9,20.7V-290.4z"/>
	<text transform="matrix(1 0 0 1 601.0433 -306.9111)" style="font-family:'ArialMT'; font-size:12px;">WY</text>
	<path style="fill:#CCCC99;stroke:#130C0E;" d="M395.2-477l35.9,20.7L467-477v-41.5l-35.9-20.7l-35.9,20.7V-477z"/>
	<text transform="matrix(1 0 0 1 423.0843 -493.5778)" style="font-family:'ArialMT'; font-size:12px;">AK</text>
	<path style="fill:#CCCC99;stroke:#130C0E;" d="M574.8-165.9v-41.5l-35.9-20.7l-35.9,20.7v41.5l35.9,20.7L574.8-165.9z"/>
	<text transform="matrix(1 0 0 1 530.5253 -182.4667)" style="font-family:'ArialMT'; font-size:12px;">CA</text>
	<path style="fill:#CCCC99;stroke:#130C0E;" d="M610.7-228.1l35.9,20.7l35.9-20.7v-41.5l-35.9-20.7l-35.9,20.7V-228.1z"/>
	<text transform="matrix(1 0 0 1 637.6323 -244.6889)" style="font-family:'ArialMT'; font-size:12px;">CO</text>
	<path style="fill:#CCCC99;stroke:#130C0E;" d="M682.6-103.7v-41.5l-35.9-20.7l-35.9,20.7v41.5L646.6-83L682.6-103.7z"/>
	<text transform="matrix(1 0 0 1 638.9653 -120.2444)" style="font-family:'ArialMT'; font-size:12px;">AZ</text>
	<path style="fill:#CCCC99;stroke:#130C0E;" d="M790.3-165.9l35.9,20.7l35.9-20.7v-41.5l-35.9-20.7l-35.9,20.7V-165.9z"/>
	<text transform="matrix(1 0 0 1 817.9174 -182.4667)" style="font-family:'ArialMT'; font-size:12px;">AR</text>
	<path style="fill:#CCCC99;stroke:#130C0E;" d="M898.1-103.7L934-83l35.9-20.7v-41.5L934-165.9l-35.9,20.7V-103.7z"/>
	<text transform="matrix(1 0 0 1 926.6855 -120.2444)" style="font-family:'ArialMT'; font-size:12px;">AL</text>
	<path style="fill:#CCCC99;stroke:#130C0E;" d="M1149.6-290.4l35.9,20.7l35.9-20.7v-41.5l-35.9-20.7l-35.9,20.7V-290.4z"/>
	<text transform="matrix(1 0 0 1 1177.4945 -306.9111)" style="font-family:'ArialMT'; font-size:12px;">CT</text>
</g>
</svg>
